<svg width="109" height="40" viewBox="0 0 109 40" fill="none" xmlns="http://www.w3.org/2000/svg">
<path fill-rule="evenodd" clip-rule="evenodd" d="M24.0996 17.085L24.0114 16.9355H23.6068L23.7498 16.689L23.6648 16.5459H23.4941L23.2678 16.9355H23.1094L23.2308 16.7269L23.1458 16.5828H22.9746L22.8715 16.7611L22.6133 16.3258L22.8239 16.3276L22.9083 16.1835L22.8239 16.0389L22.5766 16.0374L22.6561 15.9042L23.1166 15.9079L23.2016 15.7634L23.1166 15.6193L22.8252 15.6164L23.0281 15.2749L22.94 15.126H22.7641L22.5617 15.468L22.4142 15.2237H22.2435L22.1579 15.3684L22.3919 15.7548L22.3132 15.8885L22.1883 15.6818H22.0171L21.9315 15.8254L22.0388 16.0019H21.5229L21.6289 15.8254L21.5435 15.6818H21.3729L21.2479 15.8885L21.1693 15.7548L21.4026 15.3684L21.3171 15.2246L21.1464 15.2237L20.9988 15.468L20.7966 15.126H20.6211L20.5331 15.2749L20.7349 15.6164L20.4446 15.6193L20.3584 15.7634L20.4446 15.9079L20.905 15.9042L20.9834 16.0374L20.7372 16.0389L20.6522 16.1835L20.7372 16.3276L20.9478 16.3258L20.6903 16.7611L20.5871 16.5834H20.4148L20.3308 16.7269L20.4512 16.9355H20.2933L20.0666 16.5459H19.8964L19.8108 16.689L19.9539 16.9355H19.549L19.4609 17.085L19.549 17.2334H19.9539L19.8108 17.4794L19.8964 17.624H20.0666L20.2933 17.2334H20.4512L20.3308 17.442L20.4148 17.5867H20.5871L20.6903 17.4088L20.9478 17.8437L20.7372 17.8418L20.6522 17.9864L20.7372 18.1305L20.9834 18.1325L20.905 18.2662L20.4446 18.2614L20.3584 18.4065L20.4446 18.5497L20.7349 18.5526L20.5331 18.8944L20.6211 19.0434H20.7966L20.9988 18.7019L21.1464 18.9453H21.3171L21.4026 18.801L21.1693 18.4151L21.2479 18.2809L21.3729 18.4876H21.5435L21.6289 18.344L21.5234 18.1676H22.0388L21.9315 18.344L22.0171 18.4881H22.1883L22.3132 18.2809L22.3919 18.4151L22.1579 18.801L22.2435 18.9453H22.4142L22.5617 18.7019L22.7641 19.0434H22.94L23.0281 18.8944L22.8252 18.5526L23.1166 18.5497L23.2016 18.4065L23.1166 18.2614L22.6561 18.2662L22.5777 18.1325L22.8228 18.1305L22.9083 17.9864L22.8239 17.8418L22.6133 17.8437L22.8715 17.4088L22.9746 17.5867H23.1458L23.2308 17.442L23.1094 17.2334H23.2678L23.4941 17.624H23.6648L23.7498 17.4794L23.6068 17.2334H24.0114L24.0996 17.085Z" fill="white"/>
<path fill-rule="evenodd" clip-rule="evenodd" d="M14.2318 17.5921L14.1688 17.4855H13.8802L13.9822 17.3096L13.9215 17.2075H13.7997L13.6383 17.4855H13.5252L13.6119 17.3366L13.5512 17.2338H13.4291L13.3555 17.3611L13.1713 17.0505L13.3215 17.0517L13.3818 16.9489L13.3215 16.8457L13.1451 16.8447L13.2018 16.7496L13.5304 16.7523L13.5911 16.6491L13.5304 16.5463L13.3224 16.5443L13.4672 16.3006L13.4044 16.1943H13.2788L13.1345 16.4383L13.0292 16.264H12.9074L12.8464 16.3673L13.0133 16.643L12.9571 16.7385L12.868 16.5909H12.7458L12.6847 16.6934L12.7613 16.8193H12.3932L12.4689 16.6934L12.408 16.5909H12.2862L12.197 16.7385L12.1409 16.643L12.3074 16.3673L12.2464 16.2647L12.1246 16.264L12.0193 16.4383L11.8749 16.1943H11.7498L11.6869 16.3006L11.8309 16.5443L11.6238 16.5463L11.5623 16.6491L11.6238 16.7523L11.9523 16.7496L12.0082 16.8447L11.8326 16.8457L11.7719 16.9489L11.8326 17.0517L11.9829 17.0505L11.7991 17.3611L11.7255 17.2342H11.6025L11.5426 17.3366L11.6285 17.4855H11.5159L11.3541 17.2075H11.2326L11.1716 17.3096L11.2736 17.4855H10.9847L10.9219 17.5921L10.9847 17.698H11.2736L11.1716 17.8736L11.2326 17.9768H11.3541L11.5159 17.698H11.6285L11.5426 17.8469L11.6025 17.9501H11.7255L11.7991 17.8232L11.9829 18.1336L11.8326 18.1321L11.7719 18.2354L11.8326 18.3382L12.0082 18.3396L11.9523 18.435L11.6238 18.4316L11.5623 18.5351L11.6238 18.6373L11.8309 18.6393L11.6869 18.8833L11.7498 18.9896H11.8749L12.0193 18.7459L12.1246 18.9196H12.2464L12.3074 18.8166L12.1409 18.5413L12.197 18.4455L12.2862 18.593H12.408L12.4689 18.4905L12.3935 18.3646H12.7613L12.6847 18.4905L12.7458 18.5933H12.868L12.9571 18.4455L13.0133 18.5413L12.8464 18.8166L12.9074 18.9196H13.0292L13.1345 18.7459L13.2788 18.9896H13.4044L13.4672 18.8833L13.3224 18.6393L13.5304 18.6373L13.5911 18.5351L13.5304 18.4316L13.2018 18.435L13.1459 18.3396L13.3208 18.3382L13.3818 18.2354L13.3215 18.1321L13.1713 18.1336L13.3555 17.8232L13.4291 17.9501H13.5512L13.6119 17.8469L13.5252 17.698H13.6383L13.7997 17.9768H13.9215L13.9822 17.8736L13.8802 17.698H14.1688L14.2318 17.5921Z" fill="white"/>
<path fill-rule="evenodd" clip-rule="evenodd" d="M35.8791 15.413L35.7274 15.2507L35.2246 15.3586L35.3332 15.0141L35.1874 14.8588L34.9752 14.9043L34.8032 15.4489L34.6063 15.4912L34.6987 15.1995L34.5527 15.043L34.3399 15.0887L34.2617 15.3378L33.8187 14.8655L34.0809 14.8117L34.1455 14.61L34 14.4527L33.6923 14.5169L33.7537 14.33L34.3271 14.212L34.3922 14.0096L34.2461 13.8532L33.8832 13.9273L34.0396 13.4488L33.8884 13.2871L33.6697 13.334L33.5141 13.813L33.2622 13.5487L33.05 13.5942L32.9842 13.7969L33.3834 14.2148L33.3231 14.402L33.1098 14.1784L32.897 14.224L32.8309 14.4253L33.0138 14.6161L32.3725 14.7536L32.4548 14.506L32.3084 14.3502L32.0964 14.3957L31.999 14.686L31.8637 14.5407L32.0454 13.9982L31.8988 13.8422L31.6863 13.8866L31.5714 14.2296L31.2241 13.8584L31.006 13.9052L30.9384 14.1138L31.2849 14.4845L30.9249 14.5654L30.8582 14.7674L31.0058 14.9242L31.5771 14.7968L31.7119 14.9415L31.4064 15.0089L31.3412 15.2113L31.4873 15.3678L31.7486 15.3094L31.5505 15.9192L31.3724 15.7257L31.1582 15.7716L31.0941 15.9724L31.3022 16.1997L31.106 16.2417L30.7148 15.8179L30.5034 15.8632L30.4371 16.064L30.684 16.3322L30.1808 16.4402L30.1133 16.6494L30.2643 16.8104L30.7675 16.7024L30.6587 17.0465L30.8057 17.2034L31.0172 17.158L31.1895 16.612L31.3858 16.5699L31.2946 16.8613L31.4395 17.0187L31.6537 16.9728L31.7321 16.7242L32.1742 17.1962L31.9119 17.2499L31.8468 17.4524L31.9928 17.6088L32.2994 17.5456L32.2394 17.7328L31.6658 17.8495L31.5994 18.0529L31.7466 18.2079L32.1082 18.134L31.9533 18.6128L32.1045 18.7745L32.3226 18.7277L32.4782 18.2494L32.7298 18.5125L32.942 18.467L33.0079 18.2649L32.6097 17.8474L32.6698 17.6595L32.8831 17.8832L33.0952 17.8377L33.161 17.6365L32.9804 17.4454L33.621 17.308L33.5371 17.5558L33.6838 17.7122L33.8967 17.6665L33.9939 17.3756L34.1294 17.5215L33.9468 18.0635L34.0936 18.2201L34.3057 18.1746L34.4208 17.8327L34.7681 18.2033L34.9868 18.1564L35.0545 17.9478L34.7064 17.5769L35.0678 17.4957L35.1334 17.295L34.987 17.1374L34.416 17.266L34.2811 17.1207L34.5852 17.0529L34.6511 16.851L34.5055 16.6937L34.2443 16.7523L34.4433 16.1429L34.6213 16.3365L34.8341 16.2908L34.8993 16.0884L34.6898 15.8614L34.8867 15.8192L35.2775 16.2445L35.4897 16.199L35.5548 15.9966L35.3081 15.7288L35.811 15.621L35.8791 15.413Z" fill="white"/>
<path fill-rule="evenodd" clip-rule="evenodd" d="M42.5306 11.847L42.4274 11.7365L42.0852 11.8099L42.1591 11.5755L42.0599 11.4698L41.9156 11.5008L41.7986 11.8713L41.6646 11.9001L41.7275 11.7016L41.628 11.5952L41.4833 11.6263L41.4301 11.7958L41.1286 11.4744L41.3071 11.4378L41.3511 11.3005L41.252 11.1935L41.0426 11.2371L41.0844 11.1101L41.4746 11.0298L41.5189 10.892L41.4195 10.7856L41.1726 10.836L41.2789 10.5105L41.1761 10.4004L41.0273 10.4323L40.9214 10.7583L40.75 10.5784L40.6057 10.6094L40.5609 10.7473L40.8325 11.0316L40.7914 11.159L40.6463 11.0068L40.5015 11.0379L40.4565 11.1749L40.581 11.3047L40.1446 11.3983L40.2006 11.2298L40.1011 11.1238L39.9568 11.1547L39.8905 11.3522L39.7985 11.2533L39.9221 10.8842L39.8223 10.7781L39.6778 10.8083L39.5996 11.0417L39.3633 10.7891L39.2149 10.821L39.1688 10.9629L39.4046 11.2151L39.1597 11.2702L39.1143 11.4076L39.2148 11.5143L39.6035 11.4276L39.6952 11.5261L39.4873 11.572L39.443 11.7097L39.5424 11.8161L39.7201 11.7765L39.5853 12.1913L39.4641 12.0597L39.3184 12.091L39.2748 12.2276L39.4164 12.3821L39.2829 12.4108L39.0167 12.1224L38.8728 12.1533L38.8278 12.2899L38.9958 12.4724L38.6533 12.5458L38.6074 12.6882L38.7102 12.7977L39.0526 12.7243L38.9786 12.9583L39.0786 13.0651L39.2225 13.0343L39.3397 12.6627L39.4732 12.6341L39.4112 12.8323L39.5099 12.9395L39.6556 12.9082L39.7089 12.7391L40.0097 13.0602L39.8312 13.0968L39.7869 13.2345L39.8864 13.341L40.0949 13.298L40.0541 13.4253L39.6638 13.5048L39.6186 13.6431L39.7188 13.7486L39.9648 13.6984L39.8594 14.0241L39.9623 14.1341L40.1107 14.1023L40.2166 13.7768L40.3878 13.9559L40.5322 13.9249L40.577 13.7873L40.306 13.5033L40.3469 13.3755L40.4921 13.5276L40.6364 13.4967L40.6812 13.3598L40.5582 13.2298L40.9941 13.1363L40.937 13.3049L41.0369 13.4113L41.1818 13.3803L41.2479 13.1823L41.3401 13.2816L41.2158 13.6504L41.3157 13.7569L41.46 13.726L41.5384 13.4933L41.7747 13.7455L41.9235 13.7136L41.9695 13.5716L41.7327 13.3193L41.9786 13.264L42.0232 13.1275L41.9236 13.0202L41.5351 13.1078L41.4432 13.0088L41.6502 12.9628L41.6951 12.8254L41.596 12.7183L41.4182 12.7582L41.5537 12.3435L41.6748 12.4753L41.8196 12.4442L41.8639 12.3064L41.7214 12.152L41.8554 12.1233L42.1212 12.4126L42.2656 12.3817L42.3099 12.244L42.142 12.0618L42.4842 11.9884L42.5306 11.847Z" fill="white"/>
<path fill-rule="evenodd" clip-rule="evenodd" d="M49.8828 7.53034L49.9206 7.49121H57.7179V7.68696L57.68 7.76521L57.6421 7.88271L57.6043 8.00015L57.5664 8.03927L57.5286 8.11765L57.4907 8.1959L57.4529 8.27421L57.415 8.3134L57.3772 8.43084L57.3393 8.50915L57.3015 8.54827L57.2636 8.58746L57.2257 8.66577L57.188 8.74409L57.1501 8.78321L57.1122 8.90071L57.0744 8.97896L57.0365 9.01815L56.9987 9.05727L56.9608 9.13559L56.923 9.25302L56.8851 9.29221L56.8473 9.37052L56.8094 9.44877L56.7716 9.48796L56.7337 9.56627L56.6958 9.6054L56.658 9.68371L56.6202 9.76202L56.5823 9.80121L56.5445 9.87946L56.5066 9.95777L56.4688 9.9969L56.4309 10.0753L56.3931 10.1535L56.3552 10.1927L56.3174 10.271L56.2795 10.3101L56.2417 10.3493L56.2038 10.4276L56.1659 10.5059L56.1281 10.5451L56.0903 10.5843L56.0524 10.6625L56.0145 10.7017L55.9767 10.7408L55.9389 10.78L55.901 10.8191L53.8949 10.8583L53.8571 10.9366L53.8192 10.9758L53.7813 11.054L53.7435 11.0932L53.7057 11.1323L53.6678 11.2106L53.6299 11.3281L53.5164 11.3673L53.4786 11.4456L53.4407 11.5239L53.4028 11.563L53.365 11.6022L53.3272 11.6413L53.2893 11.6805L53.2514 11.7588L53.2136 11.798L53.1758 11.8371L53.1379 11.8763L53.1 11.9154L53.0622 11.9546L53.0244 12.0329L52.9865 12.072L52.9487 12.1112L52.9108 12.1503L52.8729 12.1895L52.8351 12.2286L52.7973 12.307L52.7594 12.3461L52.7215 12.3853L52.6837 12.4244L52.6459 12.4635L52.608 12.5027L52.5701 12.581L52.5323 12.6201L52.4944 12.6593L52.4566 12.6985L52.4188 12.7376L52.3809 12.8159L52.343 12.8551L52.3052 12.8942L52.2674 12.9334L52.2295 12.9725L52.1916 13.0508L52.1538 13.1291L52.0781 13.1683L52.0402 13.2075L52.0024 13.2858L51.9645 13.3249L51.9267 13.4032L51.8889 13.4424H51.8131V13.5206L51.7753 13.5598L51.7375 13.6381L51.6617 13.6773L51.6239 13.7165L51.586 13.7556L51.5482 13.7947L51.5103 13.873L51.4725 13.9122L51.4346 13.9513L51.3967 13.9905L51.3589 14.0296L51.3211 14.0688L51.2832 14.108L51.2454 14.1471L51.2076 14.1863L51.1697 14.2254L51.1318 14.2645L51.094 14.3037L51.0561 14.3429L51.0183 14.382L50.9804 14.4211L50.9426 14.4603L50.9047 14.4995L50.8668 14.5386L50.829 14.5778H50.7533V14.6561L50.6777 14.6952L50.6398 14.7344L50.6019 14.7735L50.5641 14.8127L50.5262 14.891L50.4884 14.9301L50.4505 14.9693L50.3748 15.0085L50.3369 15.0476L50.2991 15.0868L50.2613 15.1651L50.1855 15.2042L50.1478 15.2434L50.1099 15.2825L50.072 15.3216L50.0342 15.3608L49.9963 15.4L49.9584 15.4391L49.9206 15.4783L49.8449 15.5175L49.807 15.5566L49.7692 15.6349L49.7314 15.6741L49.6935 15.7132L49.6178 15.7523L49.58 15.7915L49.5421 15.8306L49.5043 15.8698L49.4664 15.909L49.4285 15.9481L49.3907 15.9873L49.315 16.0265L49.2771 16.0656L49.2393 16.1439L49.2014 16.183L49.1636 16.2221L49.0122 16.3396L48.9744 16.3788L48.9365 16.4571L48.7472 16.5746L48.7094 16.6137L48.6715 16.6529L48.5958 16.692L48.558 16.7311L48.4823 16.7703L48.4444 16.8095L48.4066 16.8486L48.3687 16.8878L48.3309 16.927L48.2552 16.9661L48.2173 17.0052L48.1795 17.0444L48.1038 17.0836L48.0659 17.1227L48.0281 17.1618L47.9902 17.201L47.9523 17.2401L47.8767 17.2793L47.8009 17.3185L47.7631 17.3576L47.7253 17.4359L47.6496 17.4751L47.536 17.5142L47.4982 17.5534L47.4603 17.5925L47.3846 17.6316L47.3468 17.6708L47.3089 17.71L47.271 17.7491L47.1954 17.7883L47.1197 17.8275L47.0818 17.8666L47.0439 17.9057L47.0061 17.9449L46.9683 17.9841L46.8547 18.0232L46.8169 18.0623L46.779 18.1015L46.7411 18.1798L46.7033 18.219L46.6276 18.2581L46.514 18.2973L46.4762 18.3364L46.4384 18.3756L46.3626 18.4147L46.3248 18.4539L46.287 18.493L46.2112 18.5322L46.1356 18.5713L46.0977 18.6105L46.0599 18.6496H45.9841V18.728L45.9085 18.7671L45.7949 18.8063L45.757 18.8454L45.6813 18.8846L45.6057 18.9237L45.5678 18.9628L45.5299 19.002L45.4163 19.0412L45.3407 19.0803L45.3028 19.1195L45.2271 19.1586L45.1514 19.1978L45.1136 19.2369L45.0379 19.2761L44.9622 19.3152L44.8864 19.3544L44.8108 19.3935L44.7729 19.4327L44.7351 19.4718L44.6972 19.511L44.5458 19.5501L44.4701 19.5893L44.4323 19.6285L44.3565 19.6676L44.3188 19.7068L44.2809 19.7459L44.2052 19.7851L44.0916 19.8242L44.0538 19.8633L43.978 19.9025L43.9024 19.9417L43.8266 19.9808L43.7888 20.02L43.7131 20.0591L43.5996 20.0983L43.5617 20.1375L43.5239 20.1766L43.4481 20.2158L43.3725 20.2549L43.3346 20.2941L43.2211 20.3332L43.1453 20.3723L43.0696 20.4115L43.0318 20.4506L42.994 20.4898L42.9182 20.529L42.8426 20.5681L42.6912 20.6073L42.6154 20.6464L42.5776 20.6856L42.5018 20.7247L42.4641 20.7638L42.3505 20.803L42.2748 20.8422L42.1612 20.8813L42.0855 20.9205L42.0477 20.9596L41.9719 20.9988L41.8584 21.038L41.8206 21.0771L41.6692 21.1163L41.5556 21.1554L41.5178 21.1946L41.442 21.2337L41.3664 21.2728L41.2907 21.312L41.1393 21.3512L41.0635 21.3903L40.95 21.4295L40.8744 21.4686L40.7986 21.5078L40.7608 21.5469L40.6472 21.5861L40.4958 21.6253L40.3444 21.6644L40.3066 21.7035L40.193 21.7427L40.1173 21.7818L40.0795 21.821L39.8523 21.8601L39.7388 21.8993L39.6631 21.9385L39.5873 21.9776L39.5117 22.0168L39.3981 22.0559L39.2846 22.0951L39.0953 22.1342L39.0197 22.1733L38.9061 22.2125L38.8304 22.2517L38.7547 22.2908L38.6411 22.33L38.4519 22.3691L38.3383 22.4083L38.2248 22.4474L38.1491 22.4866L38.0734 22.5258L37.922 22.5649L37.8084 22.604L37.5813 22.6432L37.3921 22.6823L37.3542 22.7215L37.2028 22.7606L37.1271 22.7998L37.0136 22.839L36.7864 22.8781L36.6351 22.9173L36.5593 22.9564L36.4079 22.9956L36.3323 23.0347L36.2187 23.0739L36.1052 23.113L35.8402 23.1522L35.6509 23.1913L35.5374 23.2305L35.4238 23.2696L35.2724 23.3088L35.121 23.348C33.6469 23.67 31.6503 23.8569 30.9124 23.8569C20.8844 23.8569 10.6745 23.8569 0.646484 23.8569L0.828364 23.7003L0.866226 23.6611L0.97978 23.5828L1.05547 23.5436L1.09333 23.5045L1.16902 23.4654L1.24471 23.4262L1.28257 23.3871L1.3204 23.3479L1.39613 23.3088L1.50968 23.2696L1.54751 23.2305L1.62324 23.1913L1.69893 23.1521L1.77462 23.113L1.81248 23.0738L1.92603 23.0346L2.00172 22.9955L2.03959 22.9564L2.11528 22.9172L2.19097 22.8781L2.26669 22.839L2.30452 22.7998L2.41808 22.7606L2.4938 22.7215L2.5695 22.6823L2.64518 22.6431L2.72087 22.604L2.7966 22.5649L2.87229 22.5257L2.94798 22.4865L3.02371 22.4474L3.0994 22.4083L3.17509 22.3691L3.25082 22.33L3.28864 22.2908L3.4022 22.2516L3.51575 22.2125L3.59144 22.1733L3.66717 22.1341L3.74286 22.095L3.81855 22.0559L3.9321 22.0167L4.08352 21.9775L4.19707 21.9385L4.27276 21.8993L4.38632 21.8601L4.49987 21.821L4.57556 21.7818L4.68911 21.7426L4.80267 21.7035L4.91622 21.6643L4.99191 21.6252L5.06764 21.586L5.14333 21.5469L5.37044 21.5078L5.52185 21.4686L5.67323 21.4295L5.74892 21.3903L5.82465 21.3511L5.9382 21.312L6.0139 21.2728L6.12745 21.2336L6.27888 21.1945L6.43023 21.1554L6.50591 21.1162L6.65738 21.077L6.77089 21.0379L6.99803 20.9988L7.18728 20.9596L7.37653 20.9205L7.49004 20.8813L7.60361 20.8421L7.75502 20.803L7.86859 20.7638L8.09568 20.7247L8.28492 20.6855L8.47417 20.6464L8.62558 20.6072L8.77699 20.5681L8.9284 20.5289L9.23122 20.4898L9.4583 20.4506L9.72328 20.4115L9.95037 20.3723L10.1396 20.3331L10.3289 20.294L10.5938 20.2548L11.048 20.2157L11.4644 20.1765L11.9565 20.1374L12.335 20.0983L12.7891 20.0591L13.2434 20.02L14.7195 19.9808H20.3971H27.8537L28.535 19.9416L29.2541 19.9025L29.8219 19.8633L30.3897 19.8242L30.7682 19.785L31.071 19.7459L31.6009 19.7067L31.9416 19.6676L32.2822 19.6284L32.4715 19.5893L32.6985 19.5501L32.8878 19.511L33.1907 19.4718L33.4556 19.4326L33.6448 19.3935L33.8719 19.3543L33.9855 19.3152L34.1369 19.276L34.2505 19.2369L34.5154 19.1978L34.7425 19.1586L35.0075 19.1194L35.2346 19.0803L35.4238 19.0411L35.613 19.002L35.7645 18.9628L35.9159 18.9237L36.0673 18.8845L36.1808 18.8453L36.2944 18.8062L36.3701 18.7671L36.4458 18.7279L36.6351 18.6888L36.7864 18.6496L36.9757 18.6105L37.0892 18.5713L37.2028 18.5321L37.3542 18.493L37.4677 18.4538L37.6191 18.4147L37.7706 18.3755L37.8841 18.3364L37.9976 18.2973L38.1112 18.2581L38.1491 18.2189L38.3383 18.1798L38.4519 18.1406L38.5654 18.1015L38.6411 18.0623L38.7547 18.0231L38.8304 17.984L38.9061 17.9448L39.0574 17.9057L39.171 17.8666L39.2846 17.8274L39.3603 17.7883L39.436 17.7491L39.5496 17.71L39.6631 17.6708L39.7767 17.6316L39.8902 17.5925L39.9659 17.5533L40.0416 17.5142L40.1173 17.475L40.2308 17.4358L40.3444 17.3967L40.458 17.3576L40.5336 17.3184L40.6094 17.2793L40.6851 17.2401L40.7608 17.201L40.8744 17.1618L41.0257 17.1226L41.1014 17.0835L41.1771 17.0443L41.2907 17.0052L41.3285 16.966L41.4043 16.9269L41.5178 16.8878L41.5934 16.8486L41.6692 16.8095L41.7449 16.7703L41.7827 16.7311L41.8206 16.692L41.9719 16.6528L42.0477 16.6137L42.1233 16.5745L42.1991 16.5353L42.2748 16.4962L42.3126 16.4571L42.3883 16.4179L42.5018 16.3788L42.5776 16.3396L42.6533 16.3005L42.729 16.2613L42.7668 16.2221L42.8047 16.183L42.9182 16.1438L42.994 16.1047L43.0318 16.0655L43.1075 16.0264L43.1832 15.9872L43.2589 15.9481L43.2967 15.9089L43.4103 15.8698L43.486 15.8306L43.5239 15.7915L43.5996 15.7523L43.6753 15.7131L43.7131 15.674L43.7888 15.6348L43.8645 15.5957L43.978 15.5566L44.0159 15.5174L44.0538 15.4782L44.0916 15.4391L44.1673 15.4L44.243 15.3608L44.2809 15.3216L44.3565 15.2825L44.3944 15.2433L44.4323 15.2042L44.508 15.165L44.5458 15.1259L44.6215 15.0867L44.6594 15.0476L44.7351 15.0084L44.7729 14.9301L44.8487 14.891L44.9622 14.8518L45 14.8126L45.0757 14.7735L45.1136 14.7343L45.1893 14.6952L45.2271 14.6561L45.3028 14.6169L45.3786 14.5777L45.4542 14.5386L45.4921 14.4995L45.5299 14.4603L45.6057 14.4211L45.6435 14.382L45.7192 14.3428L45.757 14.3036L45.8327 14.2645L45.8706 14.2254L45.9463 14.1862L45.9841 14.1079L46.0599 14.0688L46.0977 14.0296L46.1734 13.9905L46.2112 13.9513L46.2491 13.9121L46.287 13.873L46.3626 13.8338L46.4384 13.7946L46.4762 13.7556L46.514 13.7164L46.5519 13.6772L46.5898 13.6381L46.6276 13.599L46.7033 13.5598L46.7411 13.5206L46.779 13.4815L46.8547 13.4423L46.8925 13.4031L46.9304 13.364L46.9683 13.3249L47.0061 13.2857L47.0818 13.2466L47.1197 13.2074L47.1575 13.1683L47.1954 13.1291L47.2332 13.09L47.271 13.0508L47.3468 13.0116L47.4224 12.9725L47.4603 12.8941L47.4982 12.855L47.5739 12.8159L47.6496 12.7767L47.6874 12.7376L47.7253 12.6593L47.7631 12.6201L47.8388 12.581L47.8767 12.5418L47.9523 12.5026L47.9902 12.4635L48.0281 12.4243L48.0659 12.3852L48.1038 12.346L48.1416 12.3069L48.2173 12.2677L48.2552 12.2286L48.2931 12.1895L48.3309 12.1503L48.3687 12.1111L48.4066 12.072L48.4444 12.0328L48.4823 11.9936L48.558 11.9545L48.5958 11.9154L48.6337 11.8762L48.6715 11.8371L48.7094 11.7588L48.7851 11.7196L48.823 11.6805L48.8608 11.6413L48.8986 11.6021L48.9365 11.563L48.9744 11.5238L49.0122 11.4847L49.0879 11.4455L49.1257 11.4064L49.1636 11.3281L49.2014 11.289L49.2393 11.2498L49.315 11.2106L49.3529 11.1715L49.3907 11.0931L49.4285 11.054L49.4664 11.0149L49.5043 10.9757L49.5421 10.9365L49.58 10.8974L49.6235 10.8211L46.8429 10.8191L47.1575 10.4667L47.1954 10.3885L47.2332 10.3493L47.271 10.3101L47.3468 10.271L47.3846 10.2318L47.4224 10.1926L47.4603 10.1535L47.4982 10.0752L47.6874 9.91859L47.7253 9.84027L47.7631 9.80115L47.9523 9.64452L47.9902 9.56621L48.0659 9.52709L48.1416 9.4879L48.1795 9.40959L48.2173 9.33134L48.2552 9.29215L48.3309 9.25296L48.4066 9.2139L48.4444 9.13552L48.4823 9.0964L48.6715 8.90065L48.7094 8.82234L48.7472 8.78315L48.823 8.74402L48.8608 8.7049L48.8986 8.66571L48.9365 8.5874L48.9744 8.50909L49.0501 8.46996L49.0879 8.43084L49.1257 8.39165L49.1636 8.35246L49.2014 8.27421L49.2393 8.23502L49.2771 8.1959L49.315 8.15677L49.3529 8.11759L49.3907 8.0784L49.4285 8.00015L49.4664 7.96096L49.5043 7.92184L49.58 7.88265L49.6178 7.84352L49.6556 7.76521L49.6935 7.72602L49.7314 7.6869L49.7692 7.64777L49.807 7.60859L49.8449 7.5694L49.8828 7.53034Z" fill="white"/>
<path fill-rule="evenodd" clip-rule="evenodd" d="M69.5005 7.89223L69.4554 7.97079L69.4103 8.00998L69.3646 8.20635L69.3195 8.28485L69.2738 8.40266L69.2287 8.59898L69.1836 8.67748L69.1378 8.75604L69.0927 8.8346L69.047 8.9131L69.0019 9.03085L68.9568 9.14866L68.9111 9.26641L68.866 9.30573L68.8202 9.38423L68.7751 9.46279L68.73 9.54129L68.6843 9.58054L68.6392 9.7376L68.5941 9.81616L68.5484 9.89466L68.5033 9.97323L68.4575 10.0517L68.4124 10.091L68.3667 10.2873L68.3216 10.3658L68.2765 10.4443L68.2308 10.5229L68.1857 10.6014L68.1405 10.6407L68.0948 10.7192L68.0497 10.8762L68.004 10.9548L67.7772 11.3474L67.7321 11.5044L67.687 11.583L67.6413 11.6615L67.5962 11.7793L67.5504 11.8578L67.5053 11.8971L67.4602 12.0149L67.4145 12.0934L67.3694 12.1327L67.3237 12.2112L67.2786 12.2897L67.2335 12.329L67.1877 12.4467L67.1426 12.6038L67.0969 12.6431L67.0518 12.7216L67.0067 12.8002L66.961 12.8787L66.9159 12.9179L66.8701 13.0357L66.825 13.1535L66.7799 13.1927L66.7342 13.2713L66.6891 13.3497L66.644 13.3891L66.5983 13.4676L66.5532 13.5854L66.5074 13.6247L66.4623 13.7032L66.4172 13.7425L66.3715 13.7817L66.3264 13.8995L66.2807 13.978L66.2356 14.0565L66.1905 14.1351L66.1447 14.1744L66.0996 14.2136L66.0539 14.2529L66.0088 14.4099L65.9637 14.4492L65.9179 14.5277L65.8728 14.6062L65.8271 14.6455L65.782 14.6848L65.7369 14.724L65.6912 14.881L65.6461 14.9204L65.6003 14.9596L65.5552 15.0381L65.5101 15.1167L65.4644 15.1559L65.4193 15.2345L65.3742 15.313L65.3285 15.3915L65.1017 15.7056L64.5122 16.4909L64.4671 16.5694L64.4214 16.6087L64.3763 16.6872L64.3306 16.7264L64.2855 16.7657L64.2404 16.8442L64.1946 16.962L64.1495 17.0013L64.1038 17.0406L64.0587 17.1191L64.0136 17.1584L63.9679 17.1976L63.9227 17.2761L63.877 17.3547L63.8319 17.4332L63.7868 17.4724L63.7411 17.5117L63.696 17.551L63.6503 17.6295L63.56 17.7865L63.3784 17.9829L63.1973 18.2184L63.1516 18.2577L63.1065 18.297L63.0608 18.3755L62.9248 18.5718L62.8797 18.6111L62.834 18.6503L62.7889 18.6896L62.7438 18.8074L62.6981 18.8467L62.653 18.8859L62.6075 18.9644L62.5621 19.0037L62.5168 19.043L62.4714 19.0822L62.4261 19.2L62.3807 19.2393L62.3354 19.2785L62.2447 19.3178L62.1994 19.3571L62.1539 19.4749L62.1087 19.5142L62.0633 19.5534L62.0179 19.6319L61.9726 19.6712L61.9272 19.7104L61.8819 19.7497L61.8365 19.8282L61.7912 19.8675L61.7458 19.9067L61.6551 19.9853L61.6098 20.0245L61.5644 20.1031L61.5191 20.1816L61.4738 20.2209L61.4283 20.2602L61.383 20.2994L61.3377 20.3387L61.2923 20.3779L61.2469 20.4172L61.2016 20.4957L61.1563 20.535L61.1109 20.5742L61.0202 20.6135L60.9749 20.7313L60.9295 20.7705L60.8842 20.8098L60.8388 20.8491L60.7482 20.8883L60.7028 20.9669L60.6574 21.0454L60.612 21.0847L60.5667 21.1239L60.5213 21.1632L60.476 21.2025L60.4306 21.2417L60.3399 21.3595L60.2946 21.3987L60.2493 21.438L60.2039 21.5165L60.1586 21.5559L60.1131 21.5951L60.0678 21.6344L60.0225 21.7129L59.9771 21.7521L59.9318 21.7914L59.8864 21.8307L59.8411 21.8699L59.7958 21.9092L59.7504 21.9877L59.705 22.027L59.6597 22.0662L59.6144 22.1055L59.569 22.1447L59.5237 22.184L59.4783 22.2625L59.4329 22.3018L59.3422 22.3411L59.2515 22.3804L59.2062 22.4981L59.1155 22.5374L59.0701 22.5767L59.0248 22.616L58.9794 22.6552L58.9341 22.6945L58.8888 22.773L58.8434 22.8122L58.7527 22.8515L58.662 22.8908L58.6166 23.0085L58.5259 23.0478L58.4806 23.087L58.4352 23.1264L58.3899 23.1656L58.3445 23.2049L58.2992 23.2834L58.2085 23.3227L58.1631 23.3619L58.1178 23.4012L58.0724 23.4405L58.027 23.519L57.9817 23.5582L57.9364 23.5975L57.891 23.6368L57.8003 23.676L57.7549 23.7153L57.6189 23.8724L57.5736 23.9116L57.5283 23.9509L57.4829 23.9901L57.4375 24.0686V24.1865H62.0633L62.1087 24.1472L62.1539 24.1079L62.1994 24.0686L62.2447 24.0294L62.29 23.9901L62.3354 23.9509L62.3807 23.8724L62.4261 23.833L62.4714 23.7939L62.5168 23.7545L62.6075 23.676L62.653 23.5975L62.6981 23.5582L62.7438 23.519L62.7889 23.4797L62.834 23.4405L62.8797 23.4012L62.9248 23.3619L62.9706 23.2834L63.1065 23.1656L63.1516 23.087L63.1973 23.0085L63.2424 22.9693L63.2875 22.93L63.3784 22.8908L63.4241 22.8122L63.4692 22.7338L63.5143 22.6945L63.56 22.6552L63.6051 22.5767L63.6503 22.5374L63.696 22.4981L63.7411 22.4196L63.7868 22.3804L63.8319 22.3411L63.877 22.2625L63.9227 22.2232L63.9679 22.184L64.0136 22.1447L64.0587 22.1055L64.1038 22.027L64.1495 21.9484L64.1946 21.9092L64.2855 21.8699L64.3306 21.7914L64.3763 21.7129L64.4214 21.6344L64.4671 21.5951L64.5122 21.5559L64.5573 21.5165L64.6031 21.4773L64.6482 21.3987L64.6939 21.3595L64.739 21.281L64.7841 21.2417L64.8298 21.2025L64.8749 21.1239L64.9207 21.0847L64.9658 21.0454L65.0109 20.9669L65.0566 20.8883L65.1468 20.8491L65.1925 20.7705L65.2376 20.692L65.2834 20.6135L65.3285 20.5742L65.3742 20.535L65.4193 20.4565L65.4644 20.4172L65.5101 20.3387L65.5552 20.2994L65.6003 20.2209L65.6461 20.1424L65.6912 20.1031L65.7369 20.0638L65.782 20.0245L65.8271 19.9067L65.8728 19.8282L65.9179 19.789L65.9637 19.7497L66.0088 19.6712L66.0539 19.6319L66.0996 19.5534L66.1447 19.5142L66.1905 19.4357L66.2356 19.3571L66.3264 19.3178L66.3715 19.2785L66.4172 19.1215L66.4623 19.0822L66.5074 19.0037L66.5532 18.9644L66.5983 18.9252L66.644 18.8467L66.6891 18.8074L66.7342 18.7681L66.7799 18.6503L66.825 18.5718H66.8701L66.825 18.6896L66.7799 18.7681L66.7342 18.8074L66.6891 18.8467L66.644 18.9644L66.5983 19.0822L66.5532 19.2393L66.5074 19.2785L66.4623 19.3178L66.4172 19.3964L66.3715 19.4357L66.3264 19.5534L66.2807 19.6712L66.2356 19.7497L66.1905 19.789L66.1447 19.8675L66.0996 19.946L66.0539 19.9853L66.0088 20.1424L65.9637 20.2602L65.9179 20.2994L65.8728 20.3387L65.8271 20.4172L65.782 20.4565L65.7369 20.5742L65.6912 20.692L65.6461 20.7705L65.6003 20.8098L65.5552 20.8883L65.5101 20.9669L65.4644 21.0062L65.4193 21.1239L65.3742 21.281L65.3285 21.3202L65.2834 21.3595L65.2376 21.438L65.1925 21.4773L65.1468 21.5559L65.1017 21.6344L65.0566 21.7129L65.0109 21.7914L64.9658 21.8307L64.9207 21.8699L64.8749 21.9092L64.8298 22.027L64.7841 22.1055L64.739 22.184L64.6939 22.2625L64.6482 22.3411L64.6031 22.3804L64.5573 22.4196L64.5122 22.5374L64.4671 22.616L64.4214 22.6552L64.3763 22.7338L64.3306 22.773L64.2855 22.8515L64.2404 22.8908L64.1946 23.0478L64.1495 23.087L64.1038 23.1264L64.0587 23.1656L64.0136 23.2049L63.9679 23.2834L63.9227 23.4012L63.877 23.4797L63.8319 23.5582L63.7868 23.6368L63.696 23.676L63.6503 23.7939L63.6051 23.9116L63.56 23.9901V24.1865H67.687L67.7321 24.1472L67.7772 24.0686L67.8229 23.9901L67.8681 23.9116L67.9138 23.7939L67.9589 23.7153L68.004 23.6368L68.0497 23.5582L68.0948 23.4797L68.1405 23.4012L68.1857 23.3227L68.2308 23.2049L68.2765 23.1264L68.3216 23.0478L68.3667 22.9693L68.4124 22.8908L68.4575 22.8122L68.5033 22.6945L68.5484 22.616L68.5941 22.5374L68.6392 22.4196L68.6843 22.3804L68.73 22.3411L68.7751 22.184L68.8202 22.1055L68.866 22.027L68.9111 21.9484L68.9568 21.8699L69.0019 21.8307L69.047 21.7129L69.0927 21.6344L69.1378 21.5165L69.1836 21.3987L69.2287 21.3202L69.2738 21.2025L69.3195 21.1239L69.3646 21.0062L69.4103 20.8491L69.4554 20.7705L69.5005 20.692L69.5463 20.6135L69.5914 20.535L69.6371 20.4172L69.6822 20.2994L69.7273 20.1816L69.773 20.0638L69.8181 19.9853L69.8639 19.9067L69.909 19.8282L69.9541 19.6712L69.9998 19.5927L70.0449 19.4749L70.0906 19.3964L70.1357 19.3178L70.1809 19.2393L70.2266 19.0822L70.2717 19.0037L70.3168 18.8467L70.3625 18.7289L70.4076 18.6503L70.4534 18.5325L70.4985 18.4933L70.5436 18.297L70.6344 18.0614L70.6801 17.9829L70.7252 17.8651L70.7703 17.7865L70.8161 17.708L70.8612 17.551L70.9069 17.3939L70.952 17.2761L70.9971 17.1976L71.0428 17.0799L71.0879 17.0013L71.1337 16.805L71.1788 16.6479L71.2239 16.4909L71.2696 16.4516L71.3147 16.3339L71.3604 16.216L71.4055 16.0982L71.4506 15.9805L71.2702 15.3732L71.814 15.1559L71.8935 15.0925L71.9393 15.0139L72.0019 14.9596L72.302 14.6544L72.364 14.5608L72.5005 14.3465L72.5876 14.2406L72.8795 13.8824L73.2097 13.4504L73.2548 13.3719L73.3456 13.2149L73.3907 13.1755L73.4364 13.097L73.4816 13.0578L73.5273 12.9792L73.5724 12.9007L73.6175 12.8222L74.0811 12.1241L74.3987 11.6222L74.5346 11.3867L74.5803 11.3474L74.6254 11.2689L74.6705 11.1904L74.7163 11.1118L74.7614 11.0333L74.8071 10.9548L74.8522 10.8762L74.8973 10.837L74.943 10.7977L74.9881 10.68L75.0339 10.6014L75.079 10.5229L75.1241 10.4836L75.1698 10.4051L75.2149 10.3265L75.26 10.2873L75.3057 10.1694L75.3508 10.091L75.3966 10.0517L75.4417 9.97323L75.4868 9.89466L75.5325 9.85535L75.5776 9.7376L75.6233 9.6591L75.6684 9.58054L75.7142 9.54129L75.7593 9.46279L75.8044 9.38423L75.8501 9.34498L75.8952 9.26641L75.9403 9.14866L75.986 9.0701L76.0311 9.03085L76.0769 8.95235L76.122 8.87379L76.1671 8.79529L76.2128 8.71679L76.2579 8.59898L76.3036 8.55973L76.3487 8.48116L76.3939 8.40266L76.4396 8.3241L76.4847 8.28485L76.5304 8.16704L76.5755 8.04923L76.6206 8.00998L76.6664 7.93148L76.7115 7.85298V7.77441H73.7634L73.7183 7.85298L73.6732 8.00998L73.6275 8.08854L73.5824 8.16704L73.5373 8.2456L73.4916 8.28485L73.4465 8.3241L73.4007 8.44191L73.3556 8.52041L73.3105 8.59898L73.2648 8.67748L73.2197 8.75604L73.174 8.79529L73.1289 8.8346L73.0838 8.95235L73.038 9.03085L72.9929 9.0701L72.9472 9.14866L72.9021 9.22716L72.857 9.26641L72.8113 9.42348L72.7662 9.50204L72.7204 9.54129L72.6753 9.61985L72.6302 9.69835L72.5845 9.77685L72.5394 9.81616L72.4943 9.93391L72.4486 10.0124L72.4035 10.0517L72.3577 10.1302L72.3126 10.1694L72.2669 10.2088L72.2218 10.2873L72.1767 10.4051L72.131 10.4836L72.0858 10.5229L72.0401 10.5622L71.995 10.6014L71.9499 10.68L71.9042 10.837L71.8591 10.8762L71.814 10.9548L71.7682 10.994L71.7231 11.0725L71.6774 11.1118L71.6323 11.1511L71.5872 11.2295L71.5415 11.3082L71.4964 11.3867L71.4506 11.4259L71.4055 11.5044L71.3604 11.583L71.3147 11.6222L71.2696 11.7007L71.2239 11.7793L71.1788 11.8185L71.1337 11.8578L71.0879 11.8971L71.0428 11.9756L70.9971 12.0934L70.952 12.1327L70.9069 12.2112L70.8612 12.2505L70.8161 12.329L70.7703 12.3682L70.7252 12.4467L70.6801 12.5253L70.6344 12.6038L70.5893 12.6431L70.6344 12.5253L70.6801 12.4467L70.7252 12.3682L70.7703 12.2505L70.8161 12.1327L70.8612 12.0542L70.9069 11.9364L70.952 11.8578L70.9971 11.7793L71.0428 11.7007L71.0879 11.6222L71.1337 11.5044L71.1788 11.4259L71.2239 11.3474L71.2696 11.2295L71.3147 11.1511L71.3604 11.1118L71.4055 11.0725L71.4506 10.9155L71.4964 10.7977L71.5415 10.7192L71.5872 10.6014L71.6323 10.5622L71.6774 10.4836L71.7231 10.3265L71.7682 10.248L71.814 10.091L71.8591 10.0517L71.9042 9.93391L71.9499 9.85535L71.995 9.77685L72.0401 9.6591L72.0858 9.54129L72.131 9.42348L72.1767 9.34498L72.2218 9.26641L72.2669 9.18791L72.3126 9.03085L72.3577 8.9131L72.4035 8.79529L72.4486 8.71679L72.4943 8.59898L72.5394 8.52041L72.5845 8.44191L72.6302 8.28485L72.6753 8.12785L72.7204 8.00998V7.77441H69.5463L69.5005 7.89223Z" fill="white"/>
<path fill-rule="evenodd" clip-rule="evenodd" d="M55.1573 18.1469C55.3203 17.6127 57.6187 15.4702 58.1553 14.9472C58.5654 14.3285 59.0373 13.8319 59.4678 13.2279C59.6688 12.9804 60.8983 11.2018 60.8643 11.528C60.8303 11.9789 56.7455 18.1469 56.4889 18.1469H55.1573ZM60.3736 7.66041L60.3327 7.70029L60.21 7.93954L60.1691 7.97941L60.1282 8.01929L60.0873 8.09904L60.0465 8.17879L60.0056 8.21866L59.9647 8.25854L59.9238 8.3781L59.8829 8.45791L59.842 8.49779L59.7602 8.5376L59.7194 8.61735L59.6784 8.77685L59.6375 8.81673L59.5966 8.8566L59.5557 8.93635L59.5148 8.97623L59.474 9.0161L59.4331 9.05598L59.3922 9.1756L59.3513 9.25535L59.3104 9.29516L59.2695 9.33504L59.2286 9.37498L59.1877 9.45466L59.1059 9.57435L59.065 9.65404L59.0242 9.69391L58.9833 9.77366L58.9424 9.81354L58.9015 9.85341L58.8606 9.93316L58.8197 10.0129L58.7788 10.0527L58.7379 10.0927L58.697 10.1325L58.6562 10.1724L58.6153 10.292L58.5744 10.3319L58.5334 10.3717L58.4925 10.4515L58.4516 10.4914L58.4108 10.5312L58.3699 10.5711L58.329 10.6509L58.2881 10.7306L58.2472 10.7705L58.2063 10.8104L58.1654 10.8502L58.1245 10.8901L58.0837 11.0097L58.0428 11.0496L58.0019 11.0895L57.961 11.1293L57.9201 11.1692L57.8792 11.2091L57.8383 11.2888L57.7974 11.3685L57.7565 11.4084L57.7156 11.4483L57.6747 11.4882L57.6338 11.528L57.593 11.5679L57.5521 11.6477L57.5112 11.7274L57.4703 11.7673L57.4293 11.8072L57.3885 11.847L57.3476 11.8869L57.3067 11.9268L57.2659 12.0065L57.2249 12.0862L57.184 12.1261L57.1431 12.166L57.0613 12.2059L57.0205 12.3255L56.9796 12.3654L56.9387 12.4052L56.8978 12.4451L56.816 12.485L56.7751 12.5647L56.7342 12.6445L56.6934 12.6844L56.6524 12.7242L56.6115 12.804L56.5707 12.8438L56.5298 12.8837L56.4889 12.9635L56.448 13.0033L56.4071 13.0432L56.3662 13.0831L56.3253 13.123L56.2435 13.1628L56.2027 13.2027L56.1618 13.2825L56.1208 13.3223L56.0799 13.3622L56.039 13.402L55.9981 13.4419L55.9573 13.4818L55.9164 13.5615L55.8755 13.6014L55.7937 13.6413L55.7528 13.6812L55.7119 13.721L55.671 13.7609L55.6302 13.8407L55.5893 13.8805L55.5483 13.9204L55.5075 13.9602L55.4666 14.0002L55.4257 14.04L55.3848 14.0799L55.3439 14.1596L55.303 14.1995L55.2621 14.2394L55.2212 14.2792L55.1803 14.3191L55.1395 14.3989L55.0986 14.4387L55.0577 14.4786L55.0168 14.5185L54.9758 14.5584L54.935 14.5982L54.8532 14.7179L54.7714 14.7577L54.6896 14.7976L54.6487 14.8374L54.6078 14.9172L54.567 14.9571L54.5261 14.9969L54.4852 15.0368L54.4034 15.0767L54.3625 15.1564L54.3216 15.1963L54.2807 15.2362L54.1989 15.276L54.1172 15.3159L53.9945 15.4754L53.9536 15.5153L53.9127 15.5552L53.8718 15.595L53.8309 15.6349L53.79 15.6748L53.7492 15.7147L53.7083 15.7545L53.6673 15.7944L53.5855 15.8342L53.5446 15.914L53.5038 15.9539L53.422 15.9937L53.3811 16.0336L53.3402 16.0735L53.2993 16.1134L53.2584 16.1532L53.2175 16.233L53.1358 16.2729L53.0948 16.3127L53.054 16.3526L53.0131 16.3925L52.9722 16.4324L52.9313 16.4722L52.8495 16.5121L52.8086 16.5519L52.7677 16.5919L52.7268 16.6317L52.6451 16.7114L52.6042 16.7513L52.5633 16.7912L52.5223 16.8311L52.4815 16.8709L52.4406 16.9108L52.3997 16.9507L52.3179 16.9906L52.277 17.0304L52.2361 17.0703L52.1952 17.1102L52.1135 17.15L52.0726 17.1899L52.0317 17.2298L51.9908 17.2697L51.9499 17.3095L51.8681 17.3494L51.7454 17.3893L51.7045 17.469L51.6637 17.5089L51.5819 17.5488L51.5001 17.5887L51.4592 17.6285L51.4183 17.6684L51.3774 17.7083L51.3365 17.7482L51.2548 17.788L51.2138 17.8279L51.1729 17.8677L51.0912 17.9076L51.0503 17.9475L51.0094 17.9874L50.9276 18.0272L50.8867 18.0671L50.8458 18.107L50.764 18.1469L50.6823 18.1867L50.6413 18.2665L50.6005 18.3064L50.5596 18.3462L50.4778 18.386L50.396 18.426L50.2734 18.5455L50.1916 18.5854L50.1097 18.705H50.028L49.9871 18.7449L49.9053 18.7848L49.8644 18.8247L49.8235 18.8645L49.7417 18.9044L49.66 18.9443L49.6191 18.9842L49.5782 19.024L49.5373 19.0639L49.4555 19.1038L49.3737 19.1437L49.3328 19.1835L49.2919 19.2234L49.2102 19.2633L49.1693 19.3032L49.0875 19.343L49.0466 19.3829L49.0057 19.4228L48.883 19.4626L48.8012 19.5025L48.7603 19.5823L48.7194 19.6221L48.6377 19.662L48.5559 19.7019L48.515 19.7417L48.4332 19.7816L48.3923 19.8215L48.3105 19.8614L48.2287 19.9012L48.1878 19.9411L48.0652 19.981L48.0243 20.0209L47.9834 20.0607L47.9016 20.1006L47.8607 20.1405L47.779 20.1804L47.6972 20.2202L47.6154 20.26L47.5336 20.3L47.4518 20.3399L47.4109 20.3797L47.3291 20.4195L47.2065 20.4594L47.1656 20.4994L47.1247 20.5392L47.0429 20.579L46.9611 20.6189L46.9202 20.6588L46.8384 20.6987L46.7567 20.7385L46.6749 20.7784L46.634 20.8183L46.5522 20.8582L46.5113 20.898L46.4295 20.9379L46.3477 20.9778L46.2659 21.0177L46.1433 21.0575L46.1024 21.0974L46.0615 21.1373L45.9797 21.1771L45.8979 21.217L45.8162 21.2569L45.6526 21.2968L45.6117 21.3366L45.5708 21.3765L45.489 21.4164L45.4072 21.4563L45.3255 21.4961L45.2028 21.536L45.0801 21.5759L45.0392 21.6157L44.9983 21.6556L44.9165 21.6955L44.7939 21.7354L44.7121 21.7752L44.5486 21.8151L44.5076 21.855L44.4258 21.8949L44.344 21.9347L44.2623 21.9746L44.2214 22.0145L44.0987 22.0544L44.0169 22.0942L43.976 22.134L43.8942 22.174L43.8125 22.2139L43.7307 22.2537L43.608 22.2935L43.4854 22.3334L43.4036 22.3734L43.2808 22.4132L43.1991 22.453L43.1173 22.4929L43.0355 22.5328L42.9129 22.5727L42.8311 22.6125L42.7084 22.6524L42.6266 22.6923L42.5448 22.7322L42.4222 22.772L42.2995 22.8119L42.1359 22.8518L42.0541 22.8917L41.9723 22.9315L41.8497 22.9714L41.7679 23.0112L41.6452 23.0511L41.5225 23.091L41.3999 23.1309L41.359 23.1707L41.3181 23.2106L41.2363 23.2505L41.0727 23.2904L40.8682 23.3302L40.7456 23.3701L40.582 23.41L40.5002 23.4499L40.4185 23.4897L40.2958 23.5296L40.1731 23.5695L40.0095 23.6094L39.9278 23.6492L39.8051 23.6891L39.7233 23.729L39.6416 23.7689L39.437 23.8087L39.2735 23.8486C39.2034 23.8657 38.7668 24.0007 38.6326 24.085C38.5878 24.1132 38.6311 24.1675 38.6601 24.1675H47.6972L47.779 24.1277L47.8607 24.0879L47.9425 24.048L48.0243 24.0081L48.0652 23.9682L48.1878 23.9284L48.2697 23.8885L48.3105 23.8087L48.3923 23.7689L48.4332 23.729L48.515 23.6891L48.5968 23.6492L48.6785 23.6094L48.7194 23.5695L48.8012 23.5296L48.8422 23.4897L48.883 23.4499L49.0057 23.41L49.0466 23.3701L49.0875 23.3302L49.1284 23.2904L49.2102 23.2505L49.251 23.2106L49.3328 23.1707L49.3737 23.1309L49.4555 23.091L49.4964 23.0511L49.5373 23.0112L49.6191 22.9714L49.66 22.9315L49.7826 22.8917L49.8644 22.8518L49.9053 22.772L49.9462 22.7322L50.028 22.6923L50.1097 22.6524L50.1916 22.6125L50.2325 22.5727L50.2734 22.5328L50.3551 22.4929L50.396 22.453L50.4369 22.4132L50.5596 22.3734L50.6413 22.3334L50.6823 22.2935L50.7232 22.2537L50.764 22.2139L50.8049 22.174L50.8867 22.134L50.9685 22.0942L51.0094 22.0544L51.0503 22.0145L51.132 21.9746L51.1729 21.9347L51.2138 21.8949L51.2957 21.855L51.3365 21.8151L51.3774 21.7752L51.4183 21.7354L51.4592 21.6955L51.5001 21.6556L51.541 21.6157L51.6228 21.5759L51.9499 21.3366H53.2993L53.2584 21.3765L53.2175 21.4164L53.1767 21.4563L53.0948 21.4961L53.054 21.536L53.0131 21.5759L52.9722 21.6556L52.9313 21.6955L52.8495 21.7354L52.8086 21.7752L52.7677 21.8151L52.7268 21.855L52.686 21.9347L52.6042 21.9746L52.5633 22.0145L52.5223 22.0544L52.4815 22.0942L52.4406 22.134L52.3997 22.174L52.3588 22.2139L52.277 22.2537L52.2361 22.2935L52.1952 22.3334L52.1543 22.4132L52.1135 22.453L52.0317 22.4929L51.9908 22.5328L51.9499 22.5727L51.909 22.6125L51.8681 22.6524L51.8272 22.6923L51.7863 22.7322L51.7454 22.772L51.7045 22.8119L51.6637 22.8518L51.6228 22.8917L51.5819 22.9315L51.541 22.9714L51.5001 23.0112L51.4592 23.0511L51.3774 23.091L51.3365 23.1309L51.1729 23.2904L51.0912 23.3302L51.0094 23.3701L50.9276 23.41L50.8867 23.4897L50.8458 23.5296L50.8049 23.5695L50.7232 23.6094L50.6823 23.6492L50.6413 23.6891L50.6005 23.729L50.5596 23.7689L50.4778 23.8087L50.4369 23.8486L50.396 23.8885L50.1386 24.0799C50.1223 24.117 50.1176 24.1675 50.1591 24.1675H55.4257L55.4666 24.1277L55.5075 24.048L55.6302 23.9284L55.7119 23.8885L55.7528 23.8087L55.7937 23.729L55.8346 23.6891L55.8755 23.6492L55.9573 23.6094L55.9981 23.5296L56.039 23.4499L56.0799 23.41L56.1208 23.3701L56.1618 23.3302L56.2027 23.2904L56.2435 23.2505L56.2844 23.1707L56.3253 23.1309L56.3662 23.091L56.4071 23.0112L56.448 22.9714L56.4889 22.9315L56.5298 22.8917L56.5707 22.8518L56.6115 22.8119L56.6524 22.7322L56.7751 22.6125L56.816 22.5727L56.8569 22.4929L56.8978 22.4132L56.9387 22.3734L57.0205 22.3334L57.0613 22.2935L57.1022 22.174L57.1431 22.134L57.184 22.0942L57.2249 22.0544L57.2659 21.9746L57.3067 21.9347L57.3476 21.8949L57.3885 21.855L57.4293 21.8151L57.4703 21.7354L57.5112 21.6556L57.5521 21.6157L57.593 21.5759L57.6338 21.536L57.6747 21.4563L57.7156 21.4164L57.7565 21.3765L57.7974 21.3366L57.8383 21.2968L57.8792 21.2569L57.9201 21.1771L57.961 21.0974L58.0019 21.0575L58.0837 21.0177L58.1245 20.9379L58.1654 20.8582L58.2063 20.7784L58.2472 20.7385L58.2881 20.6987L58.329 20.6588L58.3699 20.579L58.4108 20.5392L58.4516 20.4994L58.4925 20.4195L58.5334 20.3L58.6153 20.26L58.6562 20.2202L58.697 20.1405L58.7379 20.0607L58.7788 20.0209L58.8197 19.9411L58.8606 19.9012L58.9015 19.8215L58.9424 19.7816L58.9833 19.7417L59.0242 19.662L59.065 19.5823L59.1059 19.5424L59.1469 19.5025L59.1877 19.4626L59.2286 19.3829L59.2695 19.3032L59.3104 19.2234L59.3513 19.1835L59.3922 19.1437L59.4331 19.0639L59.474 19.024L59.5148 18.9443L59.5557 18.9044L59.5966 18.8247L59.6375 18.7449L59.7194 18.705L59.7602 18.6253L59.8011 18.5057L59.842 18.4659L59.8829 18.426L59.9238 18.3462L59.9647 18.3064L60.0056 18.2266L60.0465 18.1469L60.0873 18.107L60.1282 18.0272L60.1691 17.9475L60.21 17.9076L60.2509 17.8677L60.2918 17.788L60.3327 17.7083L60.3736 17.6285L60.4145 17.5488L60.4554 17.469L60.4963 17.4292L60.5372 17.3893L60.578 17.2697L60.6189 17.1899L60.6598 17.15L60.7007 17.0703L60.7416 16.9906L60.7825 16.9507L60.8234 16.8709L60.8643 16.8311L60.9051 16.7513L60.946 16.6716L60.9869 16.6317L61.0279 16.5919L61.0688 16.5121L61.1097 16.3925L61.1505 16.3526L61.1914 16.2729L61.2323 16.1931L61.2732 16.1134L61.3141 16.0735L61.355 15.9937L61.3959 15.914L61.4368 15.8342L61.4777 15.7545L61.5185 15.6748L61.5595 15.595L61.6004 15.5552L61.6412 15.4754L61.6821 15.3957L61.723 15.3159L61.7639 15.2362L61.8048 15.1564L61.8457 15.0767L61.8866 15.0368L61.9275 14.9571L61.9683 14.8773L62.0092 14.7976L62.0501 14.7179L62.091 14.6779L62.1319 14.5982L62.1729 14.4786L62.2137 14.3989L62.2546 14.3191L62.2955 14.2792L62.3364 14.1995L62.3773 14.1197L62.4182 14.04L62.4591 13.9204L62.5 13.8407L62.5408 13.7609L62.5817 13.6812L62.6226 13.6014L62.6637 13.5217L62.7044 13.4419L62.7451 13.3223L62.7864 13.2425L62.8272 13.2027L62.8679 13.123L62.9086 13.0432L62.9499 12.9635L62.9907 12.8438L63.0314 12.7242L63.0727 12.6445L63.1135 12.5647L63.1542 12.4451L63.1949 12.4052L63.2362 12.2457L63.277 12.166L63.3177 12.0065L63.3584 11.9268L63.3997 11.8869L63.4405 11.8072L63.4812 11.7274L63.5225 11.6477L63.5632 11.528L63.6039 11.4084L63.6447 11.3685L63.686 11.249L63.7267 11.1692L63.7675 11.0097L63.8088 10.8901L63.8495 10.7306L63.8902 10.6509L63.931 10.5711L63.9723 10.4515L64.013 10.3717L64.0537 10.2521L64.0945 10.1325L64.1358 10.0129L64.1765 9.89329L64.2172 9.85341L64.2586 9.81354L64.2993 9.69391L64.34 9.57435L64.3807 9.41485L64.4221 9.33504L64.4628 9.21548L64.5035 9.09585L64.5442 9.0161L64.5856 8.81673L64.6263 8.73698L64.667 8.57748L64.7084 8.49779L64.7491 8.41798L64.7898 8.29841L64.8305 8.21866L64.8719 8.05916L64.9126 7.93954L64.9533 7.78004C64.9821 7.72398 65.0354 7.6431 65.0354 7.58066V7.50098H60.5602L60.3736 7.66041Z" fill="white"/>
<path fill-rule="evenodd" clip-rule="evenodd" d="M78.6187 7.9194L78.5736 8.03627L78.5285 8.07521L78.4834 8.19221L78.4383 8.38715L78.3938 8.54309L78.3487 8.62115L78.3036 8.77709L78.2585 8.89409L78.2134 9.01096L78.1683 9.12796L78.1232 9.32284L78.0787 9.43984L78.0336 9.51784L77.9885 9.59577L77.9434 9.67384L77.8983 9.75171L77.8532 9.94665L77.8087 10.0636L77.7636 10.1416L77.7185 10.2975L77.6734 10.4145L77.6283 10.4925L77.5832 10.6094L77.5381 10.7654L77.4936 10.8824L77.4485 10.9993L77.4034 11.0773L77.3583 11.1162L77.3132 11.2332L77.2681 11.4281L77.2236 11.5451L77.1785 11.6231L77.1334 11.7011L77.0883 11.8181L77.0432 11.857L76.9981 11.9351L76.9537 12.1299L76.9085 12.2858L76.8634 12.3639L76.8183 12.4418L76.7732 12.5198L76.7281 12.6368L76.683 12.7928L76.6386 12.9096L76.5934 12.9876L76.5483 13.0656L76.5032 13.1436L76.4581 13.1826L76.413 13.2606L76.3679 13.4166L76.3235 13.5334L76.2784 13.6115L76.2332 13.6894L76.1881 13.7285L76.143 13.8453L76.0979 14.0403L76.0535 14.1573L76.0084 14.1963L75.9633 14.2742L75.9182 14.3521L75.873 14.3911L75.8279 14.4302L75.7835 14.5861L75.7384 14.6641L75.6933 14.7811L75.6482 14.859L75.6031 14.937L75.5579 14.976L75.5135 15.1709L75.4684 15.2489L75.4233 15.3268L75.3782 15.4048L75.3331 15.4438L75.288 15.5218L75.2429 15.5998L75.1984 15.7168L75.1533 15.7946L75.1082 15.8727L75.018 15.9506L74.9729 16.0286L74.9284 16.1845L74.8833 16.3016L74.8382 16.3796L74.7931 16.4575L74.748 16.5355L74.7029 16.5745L74.6578 16.6915L74.6133 16.8083L74.5682 16.9253L74.5231 16.9643L74.478 17.0033L74.4329 17.0813L74.3878 17.1202L74.3433 17.2372L74.2982 17.3542L74.2531 17.3931L74.208 17.4712L74.1629 17.5101L74.1178 17.5491L74.0727 17.6271L74.0282 17.744L73.9831 17.8221L73.938 17.9L73.8929 17.939L73.8478 17.978L73.8027 18.0559L73.7582 18.1729L73.7131 18.2898L73.668 18.3678L73.6229 18.4458L73.5778 18.5238L73.5327 18.5628L73.4876 18.6408L73.4431 18.7576L73.398 18.8357L73.3529 18.9136L73.3078 18.9527L73.2627 19.0306L73.2176 19.0696L73.1725 19.1866L73.128 19.2646L73.0829 19.3425L73.0378 19.4205L72.9927 19.4595L72.9476 19.4985L72.9025 19.5374L72.858 19.6934L72.8129 19.7714L72.7678 19.8103L72.7227 19.8884L72.6776 19.9663L72.6325 20.0053L72.588 20.0443L72.4527 20.2393L72.4076 20.2782L72.3625 20.3172L72.3174 20.3952L72.2729 20.5121L72.2278 20.5511L72.1827 20.5901L72.1376 20.6681L72.0925 20.707L72.0474 20.7461L72.0023 20.824L71.9578 20.902L71.9127 20.98L71.8676 21.058L71.8225 21.097L71.7774 21.1749L71.7323 21.214L71.6878 21.3308L71.6427 21.4088L71.5976 21.4478L71.5525 21.4868L71.5074 21.5648L71.4623 21.6038L71.4178 21.6818L71.3727 21.7987L71.3276 21.8378L71.2825 21.9156L71.2374 21.9546L71.1923 22.0326L71.1472 22.0716L71.1027 22.1886L71.0576 22.2276L71.0125 22.2666L70.9674 22.3445L70.9223 22.3835L70.8772 22.4225L70.8321 22.4615L70.7876 22.5785L70.7425 22.6565L70.6072 22.7733L70.5621 22.8125L70.5176 22.9293L70.4725 23.0073L70.4274 23.0463L70.3823 23.0853L70.3372 23.1242L70.2921 23.2023L70.247 23.2412L70.2025 23.3193L70.1574 23.3972L70.1123 23.4752L70.0672 23.5141L70.0221 23.5531L69.977 23.5921L69.9319 23.7091L69.8874 23.7871L69.8423 23.826L69.7972 23.865L69.7521 23.943L69.707 23.982V24.099H73.0829L73.128 24.021L73.1725 23.943L73.2176 23.904L73.2627 23.826L73.3078 23.748L73.3529 23.6701L73.398 23.6312L73.4431 23.5921L73.4876 23.5531L73.5327 23.4752L73.5778 23.3972L73.6229 23.3582L73.668 23.2802L73.7131 23.2023L73.7582 23.1242L73.8027 23.0853L73.8478 22.9683L73.8929 22.8903L73.938 22.8125L73.9831 22.7733L74.0282 22.6955L74.0727 22.6174L74.1178 22.5785L74.1629 22.5395L74.208 22.4615L74.2531 22.3835L74.2982 22.3445L74.4329 22.1886L74.478 22.1106L74.5231 22.0326L74.5682 21.9546L74.6133 21.8767L74.6578 21.7987L74.7029 21.7597L74.748 21.6427L74.7931 21.5648L74.8382 21.5258L74.8833 21.4478L74.9284 21.4088L74.9729 21.3308L75.018 21.2529L75.0631 21.1749L75.1082 21.1359L75.1533 21.058L75.1984 21.0189L75.2429 20.941L75.288 20.863L75.3331 20.785L75.3782 20.707L75.4233 20.6291L75.5135 20.5511L75.5579 20.5121L75.6031 20.3952L75.6482 20.2782L75.6933 20.2003L75.7384 20.1223L75.7835 20.0443L75.8279 20.0053L75.873 19.9663L75.9182 19.8493L75.9633 19.7714L76.0084 19.6934L76.0535 19.6155L76.0979 19.5374L76.143 19.4985L76.1881 19.3815L76.2332 19.2646L76.2784 19.1866L76.3235 19.1087L76.3679 19.0306L76.413 18.9916L76.4581 18.9527L76.5032 18.7968L76.5483 18.7576L76.5934 18.6798L76.6386 18.6017L76.683 18.5238L76.7281 18.4848L76.7732 18.4068L76.8183 18.2898L76.8634 18.2119L76.9085 18.095L76.9537 18.017L76.9981 17.978L77.0432 17.939L77.0883 17.7831L77.1334 17.7051L77.1785 17.6271L77.2236 17.5491L77.2681 17.4712L77.3132 17.4321L77.3583 17.3153L77.4034 17.2372L77.4485 17.1202L77.4936 17.0033L77.5381 16.9253L77.5832 16.8474L77.6283 16.7694L77.6734 16.6915L77.7185 16.6134L77.7636 16.5355L77.8087 16.4575L77.8532 16.4185L77.9046 16.3416L77.8532 16.4575L77.8087 16.5745L77.7636 16.6915L77.7185 16.7694L77.6734 16.8863L77.6283 16.9253L77.5832 17.0033L77.5381 17.1202L77.4936 17.2372L77.4485 17.3542L77.4034 17.4321L77.3583 17.5101L77.3132 17.6271L77.2681 17.8221L77.2236 17.978L77.1785 18.017L77.1334 18.134L77.0883 18.2119L77.0432 18.2898L76.9981 18.3678L76.9537 18.5238L76.9085 18.6408L76.8634 18.7187L76.8183 18.7968L76.7732 18.8746L76.7281 18.9136L76.683 19.1476L76.6386 19.2646L76.5934 19.3425L76.5483 19.4595L76.5032 19.4985L76.4581 19.5765L76.413 19.6544L76.3679 19.7714L76.3235 19.8493L76.2784 19.9273L76.2332 20.0053L76.1881 20.0443L76.143 20.1223L76.0979 20.3172L76.0535 20.4732L76.0084 20.5121L75.9633 20.5901L75.9182 20.6681L75.873 20.7461L75.8279 20.824L75.7835 20.98L75.7384 21.058L75.6933 21.1359L75.6482 21.1749L75.6031 21.2529L75.5579 21.2918L75.5135 21.4478L75.4684 21.5258L75.4233 21.6038L75.3782 21.7208L75.3331 21.7597L75.288 21.8378L75.2429 21.9156L75.1984 22.0716L75.1533 22.1497L75.1082 22.2276L75.0631 22.2666L74.9284 22.5785L74.8382 22.8125L74.7931 22.8903L74.748 22.9683L74.7029 23.0463L74.6578 23.0853L74.6133 23.2023L74.5682 23.2802L74.5231 23.3193L74.478 23.3972L74.4329 23.4752L74.3878 23.5141L74.3433 23.6312L74.2982 23.7091L74.2531 23.7871L74.208 23.826L74.1629 23.904L74.1178 23.943V24.099H76.5032L76.5483 24.0599L76.5934 23.982L76.6386 23.943L76.683 23.865L76.7281 23.826L76.7732 23.7871L76.8183 23.6701L76.8634 23.5921L76.9085 23.5531L76.9537 23.4752L76.9981 23.4361L77.0432 23.3582L77.0883 23.3193L77.1334 23.2412L77.1785 23.1633L77.2681 23.0853L77.3132 23.0073L77.3583 22.9293L77.4034 22.8514L77.4485 22.8125L77.4936 22.7344L77.5381 22.6955L77.5832 22.6174L77.6283 22.5785L77.6734 22.5005L77.7185 22.4225L77.7636 22.3445L77.8087 22.3056L77.8532 22.2666L77.8983 22.1886L77.9434 22.1497L77.9885 22.0716L78.0336 22.0326L78.0787 21.9546L78.1232 21.8767L78.1683 21.8378L78.2134 21.7987L78.2585 21.7208L78.3036 21.6427L78.3487 21.5648L78.3938 21.5258L78.4383 21.4868L78.4834 21.4088L78.5285 21.3699L78.5736 21.2918L78.6187 21.214L78.6638 21.097L78.7089 21.058L78.7534 21.0189L78.7985 20.941L78.8436 20.824L78.8887 20.7461L78.9338 20.6681L78.9789 20.5901L79.0234 20.5511L79.0685 20.5121L79.1136 20.4342L79.1587 20.3563L79.2038 20.2782L79.2489 20.2393L79.2934 20.1613L79.3385 20.1223L79.3836 20.0443L79.4287 19.9663L79.4738 19.8884L79.5189 19.8103L79.564 19.7714L79.6085 19.7325L79.6536 19.6544L79.6987 19.5765L79.7438 19.5374L79.7889 19.4205L79.834 19.3425L79.8785 19.2646L79.9236 19.2255L79.9687 19.1866L80.0138 19.0696L80.0589 18.9916L80.104 18.9136L80.1491 18.8357L80.1936 18.7576L80.2387 18.7187L80.2838 18.6408L80.3289 18.5238L80.374 18.4458L80.4191 18.3678L80.4636 18.2898L80.5087 18.251L80.5538 18.2119L80.5989 18.0559L80.644 17.978L80.6891 17.9L80.7342 17.8221L80.7787 17.744L80.8238 17.7051L80.8689 17.6271L80.914 17.5101L80.9591 17.4712L81.0042 17.3931L81.0487 17.3153L81.0938 17.2372L81.1389 17.1983L81.184 17.0813L81.2291 17.0033L81.2742 16.9253L81.3193 16.8474L81.3638 16.7694L81.4089 16.7304L81.454 16.6915L81.4991 16.5355L81.5442 16.4575L81.5893 16.3796L81.6344 16.3016V16.3796L81.5893 16.4575L81.5442 16.5355L81.4991 16.6524L81.454 16.7304L81.4089 16.8083L81.3638 17.0033L81.3193 17.1202L81.2742 17.1983L81.2291 17.2761L81.184 17.3542L81.1389 17.4321L81.0938 17.5881L81.0487 17.7051L81.0042 17.7831L80.9591 17.861L80.914 17.939L80.8689 17.978L80.8238 18.0559L80.7787 18.251L80.7342 18.3288L80.6891 18.4068L80.644 18.4848L80.5989 18.5238L80.5538 18.6017L80.5087 18.7187L80.4636 18.8357L80.4191 18.9136L80.374 18.9527L80.3289 19.0306L80.2838 19.0696L80.2387 19.1476L80.1936 19.3036L80.1491 19.3815L80.104 19.4595L80.0589 19.5374L80.0138 19.6155L79.9687 19.6544L79.9236 19.7714L79.8785 19.8884L79.834 19.9663L79.7889 20.0443L79.7438 20.1613L79.6987 20.2393L79.6536 20.2782L79.6085 20.3952L79.564 20.5121L79.5189 20.5511L79.4738 20.6291L79.4287 20.707L79.3836 20.7461L79.3385 20.824L79.2934 20.941L79.2489 21.0189L79.2038 21.097L79.1587 21.1359L79.1136 21.214L79.0685 21.2918L79.0234 21.4088L78.9789 21.4868L78.9338 21.5258L78.8887 21.6038L78.8436 21.6818L78.7985 21.7597L78.7534 21.7987L78.7089 21.9156L78.6638 21.9937L78.6187 22.0326L78.5736 22.1106L78.5285 22.1886L78.4834 22.2276L78.4383 22.3445L78.3938 22.4615L78.3487 22.5005L78.3036 22.5785L78.2585 22.6174L78.2134 22.6565L78.1683 22.7733L78.1232 22.8903L78.0787 22.9683L78.0336 23.0073L77.9885 23.0853L77.9434 23.1242L77.8983 23.2023L77.8532 23.3193L77.8087 23.4361L77.7636 23.4752L77.7185 23.5531L77.5832 24.099H80.644L80.6891 24.021L80.7342 23.982L80.7787 23.904L80.8238 23.865L80.8689 23.826L80.914 23.7091L80.9591 23.6312L81.0042 23.5921L81.0487 23.5141L81.0938 23.4361L81.1389 23.3582L81.184 23.2802L81.2291 23.1633L81.2742 23.0853L81.3193 23.0463L81.3638 22.9683L81.4089 22.8903L81.454 22.8125L81.4991 22.7344L81.5442 22.6565L81.5893 22.5395L81.6344 22.4615L81.6789 22.3835L81.724 22.3056L81.7691 22.2276L81.8142 22.1106L81.8593 22.0326L81.9044 21.9546L81.9489 21.8767L81.994 21.7987L82.0391 21.7597L82.0842 21.6038L82.1293 21.5258L82.1744 21.4088L82.2189 21.3308L82.264 21.2918L82.3091 21.2529L82.3542 21.097L82.3993 20.98L82.4444 20.902L82.4895 20.824L82.534 20.7461L82.5791 20.6681L82.6242 20.5511L82.6693 20.4732L82.7144 20.3952L82.7595 20.2782L82.8046 20.2003L82.849 20.1223L82.8942 20.0443L82.9393 19.9663L82.9844 19.8493L83.0295 19.7714L83.0746 19.6544L83.119 19.5765L83.1641 19.4985L83.2092 19.4595L83.2544 19.3036L83.2995 19.2255L83.3446 19.1087L83.3897 19.0306L83.4341 18.9916L83.4792 18.9136L83.5243 18.7968L83.5695 18.7187L83.6146 18.6017L83.6597 18.4848L83.7041 18.4068L83.7492 18.2898L83.7943 18.2119L83.8394 18.095L83.8845 17.978L83.9297 17.861L83.9741 17.7831L84.0192 17.7051L84.0643 17.5881L84.1094 17.4712L84.1545 17.3542L84.1996 17.2761L84.2447 17.1593L84.2892 17.0423L84.3343 16.9643L84.3794 16.8863L84.4245 16.7304L84.4696 16.6134L84.5147 16.4575L84.5598 16.4185L84.6043 16.3016L84.6494 16.2236L84.6945 16.1456L84.7396 15.9897L84.7847 15.8727L84.8298 15.7557L84.8743 15.6778L84.9194 15.5608L84.9645 15.4828L85.0096 15.3659L85.0547 15.21L85.0998 15.1319L85.1443 15.015L85.1894 14.937L85.2345 14.859L85.2796 14.703L85.3247 14.5861L85.3698 14.4691L85.4143 14.3521L85.4594 14.2352L85.5045 14.1573L85.5496 14.0792L85.5947 13.8844L85.6398 13.7674L85.6849 13.6504L85.73 13.5334L85.8647 13.1436L85.9098 13.1046L85.9549 12.9487L85.9994 12.7928L86.0445 12.6758L86.0896 12.5588L86.1347 12.4418L86.1798 12.247L86.2249 12.052L86.2694 11.896L86.3145 11.8181L86.3596 11.6621L86.4047 11.5841L86.4498 11.4281L86.4949 11.2332L86.54 11.0773L86.5845 10.8824L86.6296 10.8043L86.6747 10.6484L86.7198 10.5705L86.7649 10.3756L86.81 10.2196L86.8551 10.0246L86.8996 9.90765L86.9447 9.79071L86.9898 9.67384L87.0349 9.55684L87.08 9.3619L87.1251 9.20596L87.1696 9.01096L87.2147 8.89409L87.2598 8.77709L87.3049 8.69902L87.35 8.46515L87.3951 8.30921L87.4402 8.11427L87.4847 8.03627L87.4151 7.5459L83.6597 7.8024L83.6146 7.84134L83.5695 7.9194L83.5243 7.99734L83.4792 8.07521L83.4341 8.23121L83.3897 8.34821L83.3446 8.42621L83.2995 8.50415L83.2544 8.58215L83.2092 8.69902L83.1641 8.81602L83.119 9.05002L83.0746 9.20596L83.0295 9.2839L82.9844 9.3619L82.9393 9.47877L82.8942 9.59577L82.849 9.79071L82.8046 9.90765L82.7595 9.98571L82.7144 10.0636L82.6693 10.1416L82.6242 10.2196L82.5791 10.3365L82.534 10.4925L82.4895 10.6094L82.4444 10.6875L82.3993 10.7654L82.3542 10.8434L82.3091 10.8824L82.264 11.0773L82.2189 11.1553L82.1293 11.3113L82.0842 11.3891L82.0391 11.4281L81.994 11.5061L81.9489 11.6621L81.9044 11.7791L81.8593 11.857L81.8142 11.9351L81.7691 12.052L81.724 12.1299L81.6789 12.3249L81.6344 12.4808L81.5893 12.5588L81.5442 12.5977L81.4991 12.6758L81.454 12.7147L81.4089 12.7928L81.3638 12.9487L81.3193 13.0266L81.2742 13.1046L81.2291 13.1826L81.184 13.2606L81.1389 13.3775L81.0938 13.5334L81.0487 13.6504L81.0042 13.6894L80.9591 13.7674L80.8689 13.9233L80.914 13.7674L80.9591 13.6504L81.0042 13.4945L81.0487 13.4166L81.0938 13.2606L81.1389 13.1436L81.184 12.9876L81.2291 12.8317L81.2742 12.6368L81.3193 12.5588L81.3638 12.4028L81.4089 12.3249L81.454 12.1689L81.4991 11.9351L81.5442 11.7791L81.5893 11.6231L81.6344 11.5061L81.6789 11.3502L81.724 11.2722L81.7691 10.9993L81.8142 10.8043L81.8593 10.5705L81.9044 10.4145L81.9489 10.2975L81.994 10.1026L82.0391 9.98571L82.0842 9.71277L82.1293 9.47877L82.1744 9.2449L82.2189 9.08896L82.264 8.93302L82.3091 8.81602L82.3542 8.58215L82.3993 8.30921L82.4444 8.07521V7.8024H78.6638L78.6187 7.9194Z" fill="white"/>
<path fill-rule="evenodd" clip-rule="evenodd" d="M91.828 12.2264L91.7829 12.383L91.7378 12.5396L91.6927 12.7744L91.6476 12.931L91.6025 13.0876L91.5574 13.2051L91.5123 13.3617L91.4672 13.5183L91.4221 13.6749L91.377 13.9098L91.3319 14.0664L91.2868 14.1838L91.2417 14.3404L91.1966 14.497L91.1515 14.6145L91.1064 14.9276L91.0606 15.045L91.0155 15.2016L90.9704 15.319L90.9253 15.4757L90.8802 15.5932L90.8351 15.7497L90.79 16.0238L90.7449 16.1804L90.6998 16.2978L90.6547 16.4544L90.6096 16.611L90.5645 16.7675L90.5194 17.0025L90.4743 17.159L90.4292 17.2765L90.3841 17.433L90.339 17.5896L90.2939 17.7462L90.2488 17.8637L90.2037 18.1377V18.2552L89.1588 18.254L89.2108 18.1377L89.2559 18.0204L89.301 17.942L89.3461 17.8246L89.3912 17.7462L89.4363 17.5896L89.4814 17.5114L89.5265 17.433L89.5716 17.3156L89.6167 17.2374L89.6618 17.159L89.7069 17.0417L89.752 16.9241L89.7971 16.8067L89.8422 16.7284L89.8873 16.6502L89.9324 16.5718L89.9775 16.4935L90.0226 16.2978L90.0677 16.2587L90.1128 16.1412L90.1586 16.0629L90.2037 15.9847L90.2488 15.9063L90.2939 15.7889L90.339 15.6715L90.3841 15.5539L90.4292 15.4757L90.4743 15.4365L90.5194 15.319L90.5645 15.2408L90.6096 15.0842L90.6547 15.0059L90.6998 14.9276L90.7449 14.8493L90.79 14.771L90.8351 14.6927L90.8802 14.5753L90.9253 14.4187L90.9704 14.3012L91.0155 14.1838L91.0606 14.1055L91.1064 13.988L91.1515 13.9098L91.1966 13.7532L91.2417 13.5966L91.2868 13.4791L91.3319 13.4009L91.377 13.2834L91.4221 13.166L91.4672 13.0876L91.5123 12.8919L91.5574 12.7744L91.6025 12.6962L91.6476 12.6179L91.6927 12.5004L91.7378 12.383L91.7829 12.2655L91.828 12.1481L91.8731 12.0698L91.9245 11.9926L91.8731 12.1089L91.828 12.2264ZM90.5194 8.31161L90.4743 8.46817L90.4292 8.54655L90.3841 8.66392L90.339 8.78142L90.2939 8.85967L90.2488 8.97711L90.2037 9.21205L90.1586 9.32942L90.1128 9.44686L90.0677 9.52523L90.0226 9.60355L89.9775 9.72098L89.9324 9.91673L89.8873 10.0732L89.8422 10.1515L89.7971 10.269L89.752 10.3472L89.7069 10.4256L89.6618 10.543L89.6167 10.7388L89.5716 10.8562L89.5265 10.9345L89.4814 11.0519L89.4363 11.1303L89.3912 11.2086L89.3461 11.326L89.301 11.5217L89.2559 11.6392L89.2108 11.7174L89.1657 11.7958L89.1199 11.874L89.0748 11.9132L89.0297 12.1481L88.9846 12.2264L88.9395 12.3047L88.8944 12.383L88.8493 12.4222L88.8042 12.5004L88.7591 12.657L88.714 12.8919L88.6689 13.0094L88.6238 13.1268L88.5787 13.166L88.5336 13.2443L88.4885 13.3617L88.4434 13.5183L88.3983 13.6749L88.3532 13.714L88.3081 13.8315L88.263 13.9098L88.2179 13.9489L88.1728 14.0664L88.1277 14.223L88.0819 14.3404L88.0368 14.4187L87.9923 14.497L87.9466 14.5361L87.9015 14.6145L87.8564 14.771L87.8113 14.9276L87.7662 14.9668L87.7211 15.045L87.676 15.1624L87.6309 15.2016L87.5858 15.28L87.5407 15.4365L87.4956 15.5148L87.4505 15.5932L87.4054 15.6715L87.3603 15.7105L87.3152 15.7889L87.2701 15.9847L87.225 16.0629L87.1799 16.1412L87.1347 16.1804L87.0896 16.2587L87.0445 16.2978L86.9994 16.4152L86.9537 16.5326L86.9086 16.6502L86.8635 16.7284L86.8184 16.8067L86.7733 16.885L86.7282 16.9633L86.6831 17.0808L86.638 17.1982L86.5929 17.2374L86.5478 17.3156L86.5027 17.394L86.4576 17.4722L86.4125 17.5505L86.3674 17.668L86.3223 17.7462L86.2772 17.8637L86.2321 17.942L86.1869 17.9811L86.1418 18.0204L86.0967 18.2161L86.0516 18.2944L86.0065 18.4119L85.9614 18.6076L85.9157 18.6858L85.8706 18.725L85.8255 18.8032L85.7804 18.9207L85.7353 18.999L85.6902 19.0382L85.6451 19.1165L85.6 19.1947L85.5549 19.273L85.5098 19.3513L85.4647 19.4297L85.4196 19.508L85.3745 19.547L85.3294 19.5862L85.2843 19.6646L85.2391 19.782L85.194 19.8602L85.1489 19.9385L85.1038 20.0168L85.0587 20.056L85.0136 20.0952L84.9685 20.1734L84.9228 20.33L84.8777 20.4083L84.8326 20.4867L84.7875 20.5258V20.604H84.6973L84.6522 20.6824L84.6071 20.839L84.562 20.9172L84.5169 20.9955L84.4718 21.0347L84.4267 21.113L84.3816 21.1522L84.3365 21.2695L84.2914 21.3479L84.2462 21.4262L84.2011 21.5045L84.156 21.5437L84.1109 21.6219L84.0658 21.6611L84.0207 21.8177L83.9756 21.8569L83.9299 21.9352L83.8848 22.0134L83.8397 22.0526L83.7946 22.1309L83.7495 22.2484L83.7044 22.3266L83.6593 22.3657L83.6142 22.444L83.5691 22.5224L83.524 22.5615L83.4789 22.6006L83.4338 22.7181L83.3887 22.7964L83.3436 22.8355L83.2985 22.9139L83.2533 22.953L83.2082 22.9921L83.1631 23.1487L83.118 23.1879L83.0729 23.2662L83.0278 23.3054L82.9821 23.3444L82.8468 23.5794L82.8023 23.6575L82.5762 24.1666H86.3223L86.3674 24.1274L86.4125 24.0491L86.4576 23.9709L86.5027 23.8533L86.5478 23.7751L86.5929 23.6575L86.638 23.6185L86.6831 23.5402L86.7282 23.4619L86.7733 23.4227L86.8184 23.3444L86.8635 23.227L86.9086 23.1487L86.9537 23.0704L86.9994 22.9921L87.0445 22.9139L87.0896 22.7964L87.1347 22.7181L87.1799 22.6397L87.225 22.5615L87.2701 22.4832L87.3152 22.4049L87.3603 22.3657L87.4054 22.2484L87.4505 22.17L87.4956 22.0917L87.5407 22.0134L87.5858 21.9352L87.6309 21.8569L87.676 21.7785L87.7211 21.7002L87.7662 21.6219L87.8113 21.5437L87.8564 21.4654L87.9015 21.387L88.1728 21.3479L88.8042 21.4654L88.7591 21.5827L88.714 21.7394L88.6689 21.8569L88.6238 21.896L88.5787 22.0134L88.5336 22.0917L88.4885 22.1309L88.4434 22.3657L88.3983 22.4832L88.3532 22.5615L88.3081 22.6397L88.263 22.6789L88.2179 22.7964L88.1728 22.9139L88.1277 23.0704L88.0819 23.1487L88.0368 23.2662L87.9923 23.3444C87.9316 23.501 87.8714 23.6575 87.8113 23.8142V24.1666H91.5123L91.5574 24.1274L91.6025 24.0099L91.6476 23.8925L91.6927 23.7751L91.7378 23.6575L91.7829 23.501L91.828 23.2662L91.8731 23.1096L91.9182 22.9139L91.9633 22.8355L92.0084 22.6789L92.0535 22.6006L92.0993 22.4049L92.1437 22.2092L92.1895 22.0526L92.2346 21.9352L92.279 21.8177L92.3248 21.7002L92.3699 21.5437L92.415 21.3479L92.4601 21.1522L92.5052 21.0347L92.5503 20.8782L92.5954 20.7215L92.6405 20.604L92.6856 20.3692L92.7307 20.2125L92.7758 20.0168L92.8209 19.8212L92.866 19.7428L92.9111 19.5862L92.9562 19.4297L93.0013 19.1947L93.0464 18.999L93.0915 18.8032L93.1366 18.6858L93.1817 18.5292L93.2268 18.4119L93.2726 18.1377L93.3177 17.942L93.3628 17.7072L93.4079 17.5505L93.453 17.433L93.4981 17.2765L93.5432 17.1199L93.5883 16.8067L93.6334 16.611L93.6785 16.376L93.7236 16.2194L93.7687 16.0238L93.8138 15.9455L93.8589 15.6715L93.904 15.4757L93.9491 15.2016L93.9942 15.0059L94.0393 14.8493L94.0844 14.6927L94.1295 14.4579L94.1746 14.1446L94.2197 13.8706L94.2655 13.5966L94.3106 13.44L94.3557 13.2443L94.4008 13.0876L94.4459 12.7353L94.5361 12.2655L94.7616 10.9737L94.8067 10.5822L94.8518 10.0732L94.942 9.52523L94.9871 9.21205L95.0322 8.70311L95.0773 8.38992L95.1224 8.07667L95.1675 7.9593L95.2083 7.23242L90.7712 7.80267L90.5194 8.31161Z" fill="white"/>
<path fill-rule="evenodd" clip-rule="evenodd" d="M97.6309 7.99956L97.5858 8.15544L97.5413 8.31137L97.4962 8.46712L97.4511 8.85675L97.406 9.12944L97.3615 9.32406L97.3164 9.47988L97.2713 9.63575L97.2268 9.7915L97.1817 9.98644L97.1366 10.2591L97.0922 10.4149L97.047 10.5708L97.0019 10.6875L96.9568 10.8045L96.9124 10.9602L96.8222 11.5056L96.7771 11.7004L96.7326 11.8562L96.6875 11.9731L96.6424 12.129L96.5979 12.2847L96.5528 12.4796L96.5077 12.6742L96.4632 12.7522L96.4181 12.869L96.373 12.9859L96.3279 13.1028L96.2834 13.3756L96.2383 13.5703L96.1932 13.726L96.1481 13.8039L96.1036 13.9599L96.0585 14.0766L96.0134 14.2325L95.9683 14.5052L95.9238 14.6999L95.8787 14.8168L95.8343 14.9726L95.7892 15.0504L95.7441 15.2063L95.699 15.4402L95.6545 15.6349L95.6094 15.7518L95.5643 15.8686L95.5198 15.9854L95.4747 16.0634L95.4296 16.1803L95.3845 16.4139L95.34 16.5699L95.2949 16.6867L95.2498 16.7646L95.2053 16.8426L95.1602 16.9594L95.1151 17.1931L95.07 17.3879L95.0255 17.4658L94.9804 17.5437L94.9353 17.6605L94.8902 17.7774L94.8458 17.8553L94.8006 18.0891L94.7555 18.2839L94.7111 18.3618L94.666 18.4786L94.6209 18.5565L94.5758 18.6344L94.5313 18.8681L94.4862 19.0629L94.4411 19.102L94.3966 19.2188L94.3515 19.2967L94.3064 19.3746L94.2619 19.4915L94.2168 19.6863L94.1717 19.8422L94.1272 19.92L94.0821 20.0368L94.037 20.1147L93.9919 20.1926L93.9474 20.3874L93.9023 20.5823L93.8572 20.6212L93.8121 20.7381L93.7676 20.8548L93.7226 20.9328L93.6774 21.0497L93.633 21.2444L93.5879 21.3614L93.5428 21.4393L93.4977 21.5172L93.4532 21.595L93.4081 21.6341L93.363 21.9067L93.3185 22.1015L93.2734 22.1794L93.2283 22.2963L93.1832 22.3743L93.1387 22.4131L93.0936 22.53L93.0485 22.6858L93.004 22.8027L92.9589 22.8417L92.9138 22.9586L92.8693 23.0364L92.8242 23.1143L92.7791 23.3091L92.734 23.3869L92.6896 23.4649L92.6444 23.5817L92.5993 23.6597L92.5542 23.6988L92.5098 23.8155V24.1661H96.373L96.4181 24.0883L96.4632 23.9324L96.5077 23.8155L96.5528 23.6988L96.5979 23.5817L96.6424 23.5038L96.6875 23.3481L96.7326 23.1532L96.7771 22.9974L96.8222 22.9195L96.8673 22.8417L96.9124 22.7248L96.9568 22.6079L97.0019 22.491L97.047 22.3743L97.0922 22.2573L97.1366 22.1404L97.1817 22.0624L97.2268 21.9457L97.2713 21.7898L97.3164 21.6341L97.3615 21.4393L97.406 21.3614L97.4511 21.2055L97.4962 21.1276L97.5413 21.0497L97.5858 20.8548L97.6309 20.6991L97.676 20.5823L97.7205 20.4653L97.7656 20.3484L97.8107 20.3096L97.8558 20.1147L97.9003 19.9979L97.9454 19.8422L97.9905 19.7251L98.0349 19.6084L98.08 19.5694L98.1251 19.4524L98.1702 19.2578L98.2147 19.102L98.3945 18.5954L98.4396 18.4786L98.4847 18.2839L98.5292 18.0891L98.5743 17.9332L98.6194 17.8164L98.709 17.5047V17.3099L99.5691 17.3118L99.5177 17.3879L99.4726 17.5437L99.4281 17.7384L99.383 17.8553L99.3379 18.0111L99.2928 18.1281L99.2483 18.2448L99.5691 17.3118L99.0686 18.8681L99.0235 18.9461L98.9784 19.0629L98.9339 19.2967L98.8888 19.4524L98.8437 19.5304L98.7986 19.6084L98.7541 19.7251L98.709 19.8422L98.6639 19.92L98.6194 20.1538L98.5743 20.3484L98.5292 20.3874L98.4847 20.5433L98.4396 20.6212L98.3945 20.7769L98.3494 21.0497L98.3049 21.2055L98.2598 21.2834L98.2147 21.3614L98.1702 21.4782L98.1251 21.595L98.08 21.6341L98.0349 21.8678L97.9905 22.0236L97.9454 22.1015L97.9003 22.2184L97.8558 22.3743L97.8107 22.491L97.7656 22.7248L97.7205 22.8806L97.676 22.9586L97.6309 23.0754L97.5858 23.1532L97.5413 23.2312L97.4962 23.3091L97.4511 23.5038L97.406 23.6597L97.3615 23.7376L97.3164 23.8545V24.1661H101.45L101.494 24.1271L101.539 23.9712L101.584 23.8155L101.629 23.6988L101.674 23.5038L101.719 23.3091L101.764 23.1532L101.809 23.0364L101.854 22.9195L101.899 22.8417L101.943 22.7248L101.988 22.491L102.033 22.3352L102.078 22.1404L102.123 22.0624L102.168 21.9067L102.213 21.8288L102.258 21.595L102.303 21.4003L102.348 21.2055L102.393 21.1276L102.438 20.9718L102.483 20.8548L102.528 20.7381L102.572 20.4653L102.617 20.3096L102.662 20.1147L102.708 20.0368L102.752 19.881L102.797 19.8031L102.842 19.5694L102.887 19.3746L102.932 19.1799L102.977 19.0629L103.021 18.8681L103.066 18.7124L103.112 18.5176L103.157 18.2839L103.201 18.1281L103.246 17.9332L103.291 17.8164L103.336 17.6605L103.381 17.5437L103.426 17.2321L103.471 16.9984L103.516 16.7646L103.561 16.6088L103.606 16.4919L103.651 16.2972L103.695 16.2193L103.741 15.9465L103.786 15.7518L103.83 15.518L103.875 15.4402L103.92 15.2842L103.965 15.1675L104.01 14.8559L104.1 14.4662L104.459 12.869L104.594 12.129L104.639 11.8172L104.684 11.4666L104.774 11.1161L104.998 9.9085L105.51 5.125L102.094 6.47881L101.719 8.19444L101.674 8.38931L101.629 8.54506L101.584 8.70088L101.539 9.05144L101.494 9.28519L101.45 9.44106L101.405 9.67475L101.359 9.8695L101.315 10.0643L101.27 10.4538L101.225 10.7265L101.18 10.9214L101.135 10.9992L100.91 12.012L100.865 12.129L100.821 12.2847L100.776 12.4406L100.73 12.6354L100.685 13.0249L100.641 13.2196L100.596 13.3365L100.551 13.4535L100.506 13.4923C100.441 13.6321 99.8153 13.5795 99.8322 13.5314L99.8773 13.3756L99.9218 13.1028L99.9669 12.869L100.012 12.6354L100.057 12.4796L100.102 12.2847L100.147 12.1679L100.192 11.9731L100.236 11.7004L100.281 11.4666L100.326 11.194L100.371 11.0771L100.416 10.9214L100.461 10.7655L100.506 10.4538L100.551 10.2201L100.596 9.98644L100.641 9.83056L100.685 9.67475L100.73 9.519L100.776 9.32406L100.821 9.05144L100.865 8.85675L100.91 8.584L100.955 8.42812L101 8.27225L101.121 7.41206L101.073 6.53369L97.8389 7.30056L97.6309 7.99956Z" fill="white"/>
<path fill-rule="evenodd" clip-rule="evenodd" d="M5.40569 27.1445H2.68213L1.58649 31.7796H0.0585938L1.42037 26.0342H5.67047L5.40569 27.1445ZM10.2732 29.032C10.2732 29.439 10.203 29.8197 10.0638 30.174C9.92333 30.5296 9.72744 30.8339 9.47342 31.0894C9.21 31.3542 8.9033 31.5583 8.55613 31.7006C8.20764 31.8428 7.80096 31.9153 7.33621 31.9153C6.67425 31.9153 6.16624 31.7598 5.81231 31.4517C5.45968 31.1435 5.28274 30.7154 5.28274 30.17C5.28274 29.7842 5.34896 29.4179 5.48003 29.0702C5.61239 28.7238 5.80693 28.4169 6.06628 28.1522C6.31624 27.8927 6.6242 27.6872 6.99035 27.537C7.35513 27.3869 7.76582 27.3105 8.21973 27.3105C8.88445 27.3105 9.39236 27.4633 9.74498 27.7689C10.0975 28.0732 10.2732 28.4946 10.2732 29.032ZM8.42107 30.4519C8.5426 30.2715 8.6345 30.0752 8.69664 29.8619C8.75884 29.6485 8.78985 29.389 8.78985 29.0821C8.78985 28.8174 8.7304 28.6132 8.61157 28.4709C8.49267 28.3273 8.30355 28.2562 8.04546 28.2562C7.84425 28.2562 7.66853 28.3036 7.51725 28.3998C7.36458 28.4946 7.23084 28.629 7.11464 28.8042C7.00658 28.9662 6.92144 29.1677 6.8593 29.4061C6.79716 29.6458 6.76615 29.8908 6.76615 30.1437C6.76615 30.4388 6.83368 30.6508 6.96874 30.7786C7.10248 30.905 7.2876 30.9696 7.52263 30.9696C7.69422 30.9696 7.85903 30.9235 8.01714 30.8325C8.17513 30.7404 8.31025 30.6139 8.42107 30.4519ZM15.9527 28.8318C15.9527 29.2296 15.8865 29.6168 15.7528 29.9909C15.619 30.365 15.4379 30.6877 15.2083 30.9577C14.9678 31.2435 14.6976 31.4661 14.395 31.6255C14.0924 31.7849 13.7546 31.8639 13.3804 31.8639C13.1427 31.8639 12.9238 31.8375 12.7253 31.7849C12.5253 31.7322 12.3456 31.6585 12.1849 31.5636L11.7565 33.3694H10.3246L11.7296 27.4462H13.1629L13.0549 27.8979C13.325 27.7175 13.5736 27.5779 13.802 27.4764C14.0302 27.3764 14.2829 27.3263 14.5598 27.3263C15.0083 27.3263 15.3528 27.4593 15.592 27.7254C15.8324 27.9928 15.9527 28.3603 15.9527 28.8318ZM14.0965 30.3518C14.2099 30.1898 14.2964 30.0002 14.3572 29.7828C14.4179 29.5655 14.4491 29.3297 14.4491 29.0742C14.4491 28.841 14.3964 28.6606 14.2896 28.5368C14.1843 28.4117 13.9965 28.3484 13.7249 28.3484C13.5844 28.3484 13.4466 28.3735 13.3129 28.4209C13.1778 28.4683 13.036 28.5302 12.8846 28.6079L12.3712 30.7878C12.455 30.8234 12.5537 30.851 12.6657 30.8708C12.7779 30.8905 12.8927 30.8997 13.0116 30.8997C13.2521 30.8997 13.4642 30.8497 13.6493 30.7496C13.8344 30.6495 13.983 30.5165 14.0965 30.3518ZM20.8674 31.7796H19.4355L19.8826 29.904H18.2479L17.8048 31.7796H16.3714L17.3968 27.4462H18.8262L18.4695 28.9662H20.1001L20.4608 27.4462H21.8928L20.8674 31.7796ZM27.3305 29.032C27.3305 29.439 27.2602 29.8197 27.1211 30.174C26.9806 30.5296 26.7847 30.8339 26.5307 31.0894C26.2673 31.3542 25.9606 31.5583 25.6134 31.7006C25.2649 31.8428 24.8583 31.9153 24.3935 31.9153C23.7316 31.9153 23.2236 31.7598 22.8696 31.4517C22.517 31.1435 22.34 30.7154 22.34 30.17C22.34 29.7842 22.4062 29.4179 22.5373 29.0702C22.6697 28.7238 22.8642 28.4169 23.1236 28.1522C23.3736 27.8927 23.6816 27.6872 24.0477 27.537C24.4124 27.3869 24.8231 27.3105 25.277 27.3105C25.9418 27.3105 26.4497 27.4633 26.8023 27.7689C27.1549 28.0732 27.3305 28.4946 27.3305 29.032ZM25.4784 30.4519C25.5999 30.2715 25.6917 30.0752 25.754 29.8619C25.8161 29.6485 25.8471 29.389 25.8471 29.0821C25.8471 28.8174 25.7877 28.6132 25.6688 28.4709C25.5499 28.3273 25.3608 28.2562 25.1028 28.2562C24.9015 28.2562 24.7258 28.3036 24.5745 28.3998C24.4219 28.4946 24.2881 28.629 24.1719 28.8042C24.0638 28.9662 23.9788 29.1677 23.9166 29.4061C23.8545 29.6458 23.8235 29.8908 23.8235 30.1437C23.8235 30.4388 23.8909 30.6508 24.026 30.7786C24.1597 30.905 24.3448 30.9696 24.5799 30.9696C24.7515 30.9696 24.9163 30.9235 25.0744 30.8325C25.2324 30.7404 25.3676 30.6139 25.4784 30.4519ZM32.1751 31.7796H30.7417L31.5455 28.3879H30.3823C30.3445 28.5288 30.3054 28.683 30.2607 28.8489C30.2175 29.0149 30.1838 29.1413 30.1608 29.2283C30.0865 29.5193 30.0095 29.7762 29.9284 29.9989C29.8487 30.2214 29.765 30.415 29.6771 30.5797C29.5353 30.8471 29.361 31.0829 29.1543 31.287C28.949 31.4925 28.7288 31.636 28.4937 31.7177C28.3803 31.7533 28.2775 31.7783 28.1857 31.7888C28.0924 31.8007 27.9817 31.8072 27.8533 31.8072C27.729 31.8072 27.6007 31.802 27.4683 31.7928C27.3373 31.7835 27.259 31.7796 27.236 31.7796L27.5008 30.6679H27.544C27.5548 30.6679 27.5751 30.6706 27.6034 30.6758C27.6318 30.6811 27.6601 30.6838 27.6872 30.6838C27.8479 30.6838 27.9695 30.664 28.0533 30.6245C28.1357 30.5836 28.2248 30.5033 28.3195 30.3821C28.4302 30.2412 28.5329 30.0674 28.6248 29.8619C28.7166 29.6564 28.8247 29.3218 28.949 28.8582C29.0097 28.6342 29.0679 28.4235 29.1219 28.2233C29.176 28.0244 29.2422 27.7649 29.3204 27.4462H33.2004L32.1751 31.7796ZM36.7549 30.228C36.7549 30.0871 36.7063 29.9751 36.6117 29.8921C36.5171 29.8104 36.3631 29.7696 36.1483 29.7696H35.416L35.1472 30.9077H35.955C36.124 30.9077 36.2631 30.88 36.3739 30.8247C36.4847 30.7694 36.5671 30.7061 36.6198 30.6337C36.6752 30.5533 36.7116 30.4782 36.7292 30.4072C36.7454 30.3373 36.7549 30.2767 36.7549 30.228ZM38.2423 30.0475C38.2423 30.3295 38.1774 30.5928 38.0464 30.8339C37.9153 31.0763 37.7357 31.2751 37.506 31.4318C37.3195 31.5583 37.121 31.6479 36.9129 31.7006C36.7036 31.7533 36.4319 31.7796 36.0969 31.7796H33.5125L34.5379 27.4462H35.9673L35.6228 28.8937H36.64C37.1669 28.8937 37.5668 28.9952 37.837 29.1993C38.1072 29.4048 38.2423 29.6867 38.2423 30.0475ZM39.7702 31.7796H38.3368L39.3622 27.4462H40.7956L39.7702 31.7796ZM48.4096 31.7796H46.91L46.04 30.0502H45.6117L45.1997 31.7796H43.7758L44.1865 30.0502H43.788L42.2749 31.7796H40.6254L42.6951 29.5022C42.6369 29.4509 42.591 29.385 42.5586 29.3047C42.5262 29.223 42.5006 29.1453 42.4856 29.0702C42.4721 29.0083 42.4586 28.9517 42.4437 28.899C42.4289 28.8463 42.3979 28.7897 42.3505 28.7317C42.3114 28.679 42.26 28.6382 42.1979 28.6079C42.1357 28.5763 42.0547 28.5618 41.9547 28.5618H41.5548L41.821 27.4462C41.8682 27.4462 41.9358 27.4448 42.0263 27.4422C42.1155 27.4396 42.2155 27.4382 42.3235 27.4382C42.6127 27.4382 42.8518 27.4923 43.0368 27.5989C43.2233 27.7057 43.3651 27.9006 43.4624 28.1838C43.4841 28.247 43.5097 28.3274 43.5381 28.4222C43.5677 28.517 43.5961 28.6053 43.6245 28.6843C43.6989 28.9003 43.7812 29.0399 43.8731 29.1032C43.9636 29.1663 44.1325 29.198 44.3811 29.198L44.7971 27.4462H46.2211L45.8063 29.198C46.0536 29.1954 46.2211 29.1638 46.3062 29.1032C46.3926 29.0425 46.5304 28.8963 46.7195 28.6619C46.7709 28.5973 46.833 28.5144 46.9087 28.4143C46.983 28.3142 47.0506 28.2285 47.1087 28.1561C47.2977 27.919 47.499 27.7412 47.7112 27.62C47.9246 27.4988 48.2191 27.4382 48.5961 27.4382C48.7015 27.4382 48.815 27.4396 48.9365 27.4422C49.0581 27.4448 49.1405 27.4462 49.1824 27.4462L48.9203 28.5618H48.5529C48.4474 28.5618 48.3583 28.5763 48.288 28.6053C48.2165 28.6356 48.1503 28.6764 48.0894 28.7278C48.0367 28.7686 47.9854 28.8239 47.9368 28.8937C47.8882 28.9622 47.8476 29.0188 47.8166 29.0624C47.7139 29.2098 47.618 29.3245 47.5301 29.4061C47.441 29.4891 47.3505 29.5524 47.2586 29.5957L48.4096 31.7796ZM53.7014 31.7796H52.2693L52.7165 29.904H51.0818L50.6387 31.7796H49.2053L50.2308 27.4462H51.6601L51.3034 28.9662H52.934L53.2947 27.4462H54.7267L53.7014 31.7796ZM58.2812 30.228C58.2812 30.0871 58.2325 29.9751 58.1379 29.8921C58.0434 29.8104 57.8893 29.7696 57.6746 29.7696H56.9424L56.6735 30.9077H57.4813C57.6502 30.9077 57.7894 30.88 57.9002 30.8247C58.0109 30.7694 58.0934 30.7061 58.1461 30.6337C58.2014 30.5533 58.2379 30.4782 58.2555 30.4072C58.2717 30.3373 58.2812 30.2767 58.2812 30.228ZM59.7685 30.0475C59.7685 30.3295 59.7037 30.5928 59.5726 30.8339C59.4417 31.0763 59.2619 31.2751 59.0323 31.4318C58.8459 31.5583 58.6472 31.6479 58.4392 31.7006C58.2298 31.7533 57.9583 31.7796 57.6232 31.7796H55.0388L56.0642 27.4462H57.4936L57.149 28.8937H58.1663C58.6932 28.8937 59.093 28.9952 59.3633 29.1993C59.6334 29.4048 59.7685 29.6867 59.7685 30.0475ZM61.2965 31.7796H59.8631L60.8885 27.4462H62.3219L61.2965 31.7796ZM67.1501 31.7796H65.7657L66.3871 29.1677L63.8131 31.7796H62.6339L63.6596 27.4462H65.0403L64.4822 29.7802L66.8488 27.4462H68.1756L67.1501 31.7796ZM67.8825 25.5244C67.7904 25.9749 67.568 26.3239 67.2153 26.5742C66.8639 26.8232 66.4097 26.9482 65.8559 26.9482C65.3711 26.9482 64.9983 26.8495 64.7402 26.6506C64.4809 26.453 64.3525 26.1791 64.3525 25.8287C64.3525 25.7773 64.355 25.7285 64.3606 25.6812C64.3644 25.6324 64.3725 25.581 64.3832 25.5244H65.4845C65.4738 25.5784 65.4657 25.6298 65.4613 25.6785C65.4588 25.7273 65.4563 25.7694 65.4563 25.8063C65.4563 25.9683 65.4982 26.0895 65.5803 26.1711C65.6642 26.2515 65.7989 26.2924 65.9869 26.2924C66.2262 26.2924 66.4059 26.2265 66.525 26.096C66.6434 25.9643 66.7286 25.7734 66.7824 25.5244H67.8825ZM76.0311 31.7796H74.5321L73.7403 30.0502H73.1038L72.696 31.7796H71.2627L72.2882 27.4462H73.7215L73.3049 29.198C73.563 29.1954 73.744 29.1664 73.8468 29.1097C73.9495 29.0531 74.0967 28.9068 74.2859 28.6738C74.3398 28.6066 74.4049 28.521 74.4845 28.4169C74.564 28.3129 74.6248 28.2312 74.6712 28.1719C74.8453 27.9427 75.0426 27.7636 75.2644 27.6332C75.4855 27.5028 75.7843 27.4382 76.1583 27.4382C76.2635 27.4382 76.3776 27.4396 76.4991 27.4422C76.6206 27.4448 76.7027 27.4462 76.7447 27.4462L76.4828 28.5618H76.1276C75.9842 28.5618 75.8614 28.5974 75.7543 28.6711C75.649 28.7449 75.5356 28.87 75.4141 29.0478C75.2963 29.2151 75.213 29.3257 75.1629 29.381C75.114 29.4364 75.0426 29.493 74.948 29.5497L76.0311 31.7796ZM78.3389 33.3694H76.776L77.9079 31.6953L77.1756 27.4462H78.6321L79.0155 30.286L80.71 27.4462H82.2134L78.3389 33.3694ZM87.2243 28.8318C87.2243 29.2296 87.1579 29.6168 87.0245 29.9909C86.8904 30.365 86.7094 30.6877 86.4795 30.9577C86.2396 31.2435 85.9689 31.4661 85.6664 31.6255C85.3638 31.7849 85.0262 31.8639 84.6522 31.8639C84.4141 31.8639 84.1955 31.8375 83.9969 31.7849C83.7971 31.7322 83.6173 31.6585 83.4563 31.5636L83.0278 33.3694H81.5958L83.0009 27.4462H84.4348L84.3264 27.8979C84.5964 27.7175 84.8451 27.5779 85.0738 27.4764C85.3018 27.3764 85.5542 27.3263 85.8311 27.3263C86.2797 27.3263 86.6242 27.4593 86.8635 27.7254C87.104 27.9928 87.2243 28.3603 87.2243 28.8318ZM85.3682 30.3518C85.4816 30.1898 85.568 30.0002 85.6288 29.7828C85.6895 29.5655 85.7209 29.3297 85.7209 29.0742C85.7209 28.841 85.6676 28.6606 85.5611 28.5368C85.4559 28.4117 85.268 28.3484 84.9967 28.3484C84.8558 28.3484 84.7179 28.3735 84.5845 28.4209C84.4492 28.4683 84.3076 28.5302 84.156 28.6079L83.643 30.7878C83.7263 30.8234 83.8253 30.851 83.9374 30.8708C84.0495 30.8905 84.1642 30.8997 84.2832 30.8997C84.5238 30.8997 84.7355 30.8497 84.9209 30.7496C85.1057 30.6495 85.2542 30.5165 85.3682 30.3518ZM92.7683 29.032C92.7683 29.439 92.6981 29.8197 92.5591 30.174C92.4187 30.5296 92.2227 30.8339 91.9689 31.0894C91.7052 31.3542 91.3989 31.5583 91.0512 31.7006C90.7029 31.8428 90.2964 31.9153 89.8315 31.9153C89.1694 31.9153 88.6614 31.7598 88.3074 31.4517C87.9547 31.1435 87.7781 30.7154 87.7781 30.17C87.7781 29.7842 87.8445 29.4179 87.9754 29.0702C88.1076 28.7238 88.3024 28.4169 88.5618 28.1522C88.8117 27.8927 89.1193 27.6872 89.4858 27.537C89.8503 27.3869 90.2613 27.3105 90.7148 27.3105C91.3801 27.3105 91.8875 27.4633 92.2402 27.7689C92.5929 28.0732 92.7683 28.4946 92.7683 29.032ZM90.9165 30.4519C91.0381 30.2715 91.1295 30.0752 91.1922 29.8619C91.2542 29.6485 91.2849 29.389 91.2849 29.0821C91.2849 28.8174 91.226 28.6132 91.107 28.4709C90.988 28.3273 90.7988 28.2562 90.5407 28.2562C90.3396 28.2562 90.1642 28.3036 90.0126 28.3998C89.8597 28.4946 89.7263 28.629 89.6098 28.8042C89.502 28.9662 89.4168 29.1677 89.3548 29.4061C89.2928 29.6458 89.2615 29.8908 89.2615 30.1437C89.2615 30.4388 89.3291 30.6508 89.4638 30.7786C89.5979 30.905 89.7827 30.9696 90.0182 30.9696C90.1899 30.9696 90.3546 30.9235 90.5125 30.8325C90.6703 30.7404 90.8057 30.6139 90.9165 30.4519ZM98.4482 28.8318C98.4482 29.2296 98.3818 29.6168 98.2484 29.9909C98.1143 30.365 97.9333 30.6877 97.7034 30.9577C97.4634 31.2435 97.1928 31.4661 96.8902 31.6255C96.5877 31.7849 96.25 31.8639 95.876 31.8639C95.638 31.8639 95.4194 31.8375 95.2208 31.7849C95.021 31.7322 94.8412 31.6585 94.6802 31.5636L94.2517 33.3694H92.8196L94.2247 27.4462H95.658L95.5503 27.8979C95.8203 27.7175 96.069 27.5779 96.297 27.4764C96.5257 27.3764 96.7781 27.3263 97.055 27.3263C97.5035 27.3263 97.8481 27.4593 98.0874 27.7254C98.3279 27.9928 98.4482 28.3603 98.4482 28.8318ZM96.5921 30.3518C96.7054 30.1898 96.7919 30.0002 96.8527 29.7828C96.9134 29.5655 96.9441 29.3297 96.9441 29.0742C96.9441 28.841 96.8915 28.6606 96.785 28.5368C96.6798 28.4117 96.4918 28.3484 96.2206 28.3484C96.0796 28.3484 95.9418 28.3735 95.8084 28.4209C95.6731 28.4683 95.5315 28.5302 95.3799 28.6079L94.8669 30.7878C94.9502 30.8234 95.0491 30.851 95.1613 30.8708C95.2734 30.8905 95.388 30.8997 95.5071 30.8997C95.7476 30.8997 95.9594 30.8497 96.1448 30.7496C96.3296 30.6495 96.478 30.5165 96.5921 30.3518ZM103.299 28.3879H101.884L101.08 31.7796H99.6466L100.45 28.3879H99.0333L99.2544 27.4462H103.522L103.299 28.3879Z" fill="white"/>
<path fill-rule="evenodd" clip-rule="evenodd" d="M107.108 0.161133C107.424 0.161133 107.732 0.241364 108.034 0.401832C108.334 0.563142 108.569 0.792869 108.737 1.09268C108.905 1.39165 108.989 1.70414 108.989 2.0293C108.989 2.35108 108.906 2.66019 108.74 2.95663C108.575 3.25391 108.342 3.48447 108.045 3.64832C107.746 3.81301 107.434 3.89493 107.108 3.89493C106.782 3.89493 106.469 3.81301 106.171 3.64832C105.872 3.48447 105.64 3.25391 105.474 2.95663C105.307 2.66019 105.225 2.35108 105.225 2.0293C105.225 1.70414 105.309 1.39165 105.477 1.09268C105.646 0.792869 105.881 0.563142 106.182 0.401832C106.483 0.241364 106.792 0.161133 107.108 0.161133ZM107.108 0.470243C106.843 0.470243 106.586 0.537805 106.336 0.672088C106.085 0.806375 105.889 0.998932 105.748 1.24808C105.607 1.49807 105.536 1.7582 105.536 2.0293C105.536 2.29787 105.606 2.55546 105.745 2.80208C105.884 3.04868 106.078 3.24124 106.327 3.3789C106.576 3.51657 106.836 3.58582 107.108 3.58582C107.379 3.58582 107.64 3.51657 107.889 3.3789C108.138 3.24124 108.332 3.04868 108.47 2.80208C108.607 2.55546 108.676 2.29787 108.676 2.0293C108.676 1.7582 108.607 1.49807 108.466 1.24808C108.325 0.998932 108.13 0.806375 107.879 0.672088C107.628 0.537805 107.37 0.470243 107.108 0.470243ZM106.282 3.06051V1.05214H106.978C107.216 1.05214 107.388 1.06988 107.495 1.10704C107.601 1.1442 107.685 1.20923 107.749 1.30129C107.812 1.39419 107.844 1.49216 107.844 1.59604C107.844 1.74299 107.791 1.87052 107.685 1.97947C107.58 2.08841 107.439 2.14923 107.265 2.16274C107.336 2.19229 107.394 2.22777 107.437 2.26916C107.519 2.34854 107.618 2.48113 107.737 2.66779L107.983 3.06051H107.584L107.405 2.7438C107.263 2.4955 107.15 2.33925 107.063 2.27676C107.003 2.2303 106.915 2.2075 106.801 2.2075H106.609V3.06051H106.282ZM106.609 1.93049H107.006C107.195 1.93049 107.324 1.90177 107.393 1.84603C107.462 1.79029 107.497 1.71596 107.497 1.62306C107.497 1.56394 107.48 1.51074 107.447 1.46344C107.413 1.41699 107.368 1.38152 107.309 1.35871C107.249 1.33508 107.14 1.32409 106.981 1.32409H106.609V1.93049Z" fill="white"/>
</svg>
